<svg xmlns="http://www.w3.org/2000/svg" viewBox="0 0 800 600">
  <defs>
    <linearGradient id="bg" x1="0%" y1="0%" x2="100%" y2="100%">
      <stop offset="0%" stop-color="#0a2a2a"/>
      <stop offset="100%" stop-color="#041515"/>
    </linearGradient>
    <linearGradient id="hdr" x1="0%" y1="0%" x2="100%" y2="0%">
      <stop offset="0%" stop-color="#0d3535"/>
      <stop offset="100%" stop-color="#082525"/>
    </linearGradient>
  </defs>

  <!-- Background -->
  <rect width="800" height="600" fill="url(#bg)"/>

  <!-- Grid overlay -->
  <g stroke="#0d9488" stroke-width="0.5" opacity="0.05">
    <line x1="0" y1="60" x2="800" y2="60"/>
    <line x1="0" y1="120" x2="800" y2="120"/>
    <line x1="0" y1="180" x2="800" y2="180"/>
    <line x1="0" y1="240" x2="800" y2="240"/>
    <line x1="0" y1="300" x2="800" y2="300"/>
    <line x1="0" y1="360" x2="800" y2="360"/>
    <line x1="0" y1="420" x2="800" y2="420"/>
    <line x1="0" y1="480" x2="800" y2="480"/>
    <line x1="0" y1="540" x2="800" y2="540"/>
    <line x1="80" y1="0" x2="80" y2="600"/>
    <line x1="160" y1="0" x2="160" y2="600"/>
    <line x1="240" y1="0" x2="240" y2="600"/>
    <line x1="320" y1="0" x2="320" y2="600"/>
    <line x1="400" y1="0" x2="400" y2="600"/>
    <line x1="480" y1="0" x2="480" y2="600"/>
    <line x1="560" y1="0" x2="560" y2="600"/>
    <line x1="640" y1="0" x2="640" y2="600"/>
    <line x1="720" y1="0" x2="720" y2="600"/>
  </g>

  <!-- Title -->
  <text x="60" y="72" fill="#0d9488" font-family="Inter, sans-serif" font-size="26" font-weight="700">Парсер цен Binance P2P</text>
  <text x="60" y="96" fill="#4b7070" font-family="Inter, sans-serif" font-size="13">Python · Binance P2P API · Google Sheets · Heroku · обновление каждые 2 мин</text>

  <!-- Panel: USDT/RUB Tinkoff -->
  <rect x="60" y="118" width="325" height="310" fill="#071e1e" rx="8" stroke="#0f3838" stroke-width="1"/>

  <!-- Header USDT -->
  <rect x="60" y="118" width="325" height="34" fill="url(#hdr)" rx="8"/>
  <rect x="60" y="136" width="325" height="16" fill="#0d3535"/>
  <text x="108" y="139" fill="#5eead4" font-family="Inter, sans-serif" font-size="12" font-weight="600">USDT / RUB</text>
  <rect x="215" y="124" width="56" height="16" fill="#0d9488" rx="4" opacity="0.3"/>
  <text x="243" y="136" fill="#2dd4bf" font-family="Inter, sans-serif" font-size="10" text-anchor="middle">Tinkoff</text>
  <text x="325" y="136" fill="#1e5050" font-family="Inter, sans-serif" font-size="10" text-anchor="end">10 офферов</text>

  <!-- Column headers USDT -->
  <line x1="60" y1="152" x2="385" y2="152" stroke="#0f3838" stroke-width="1"/>
  <text x="80" y="166" fill="#4b7070" font-family="Inter, sans-serif" font-size="10">#</text>
  <text x="100" y="166" fill="#4b7070" font-family="Inter, sans-serif" font-size="10">Продавец</text>
  <text x="270" y="166" fill="#4b7070" font-family="Inter, sans-serif" font-size="10" text-anchor="middle">Цена (₽)</text>
  <text x="368" y="166" fill="#4b7070" font-family="Inter, sans-serif" font-size="10" text-anchor="end">Лимит</text>
  <line x1="60" y1="170" x2="385" y2="170" stroke="#0f3838" stroke-width="1"/>

  <!-- USDT rows -->
  <rect x="61" y="171" width="323" height="24" fill="#0d9488" opacity="0.08"/>
  <text x="80" y="187" fill="#94a3b8" font-family="Inter, sans-serif" font-size="11">1</text>
  <text x="100" y="187" fill="#e2e8f0" font-family="Inter, sans-serif" font-size="11">Merchant_A</text>
  <text x="270" y="187" fill="#2dd4bf" font-family="Inter, sans-serif" font-size="12" font-weight="700" text-anchor="middle">63.20</text>
  <text x="368" y="187" fill="#64748b" font-family="Inter, sans-serif" font-size="10" text-anchor="end">1000–50000</text>

  <line x1="60" y1="195" x2="385" y2="195" stroke="#0f2f2f" stroke-width="1"/>
  <text x="80" y="211" fill="#94a3b8" font-family="Inter, sans-serif" font-size="11">2</text>
  <text x="100" y="211" fill="#e2e8f0" font-family="Inter, sans-serif" font-size="11">FastTrader</text>
  <text x="270" y="211" fill="#2dd4bf" font-family="Inter, sans-serif" font-size="12" font-weight="700" text-anchor="middle">63.15</text>
  <text x="368" y="211" fill="#64748b" font-family="Inter, sans-serif" font-size="10" text-anchor="end">500–30000</text>

  <line x1="60" y1="219" x2="385" y2="219" stroke="#0f2f2f" stroke-width="1"/>
  <text x="80" y="235" fill="#94a3b8" font-family="Inter, sans-serif" font-size="11">3</text>
  <text x="100" y="235" fill="#e2e8f0" font-family="Inter, sans-serif" font-size="11">CryptoExchange</text>
  <text x="270" y="235" fill="#2dd4bf" font-family="Inter, sans-serif" font-size="12" font-weight="700" text-anchor="middle">63.10</text>
  <text x="368" y="235" fill="#64748b" font-family="Inter, sans-serif" font-size="10" text-anchor="end">2000–100000</text>

  <line x1="60" y1="243" x2="385" y2="243" stroke="#0f2f2f" stroke-width="1"/>
  <text x="80" y="259" fill="#94a3b8" font-family="Inter, sans-serif" font-size="11">4</text>
  <text x="100" y="259" fill="#cbd5e1" font-family="Inter, sans-serif" font-size="11">Pro_Seller</text>
  <text x="270" y="259" fill="#2dd4bf" font-family="Inter, sans-serif" font-size="12" font-weight="700" text-anchor="middle">63.05</text>
  <text x="368" y="259" fill="#64748b" font-family="Inter, sans-serif" font-size="10" text-anchor="end">300–20000</text>

  <line x1="60" y1="267" x2="385" y2="267" stroke="#0f2f2f" stroke-width="1"/>
  <text x="80" y="283" fill="#94a3b8" font-family="Inter, sans-serif" font-size="11">5</text>
  <text x="100" y="283" fill="#cbd5e1" font-family="Inter, sans-serif" font-size="11">TopDealer</text>
  <text x="270" y="283" fill="#2dd4bf" font-family="Inter, sans-serif" font-size="12" font-weight="700" text-anchor="middle">63.00</text>
  <text x="368" y="283" fill="#64748b" font-family="Inter, sans-serif" font-size="10" text-anchor="end">1000–80000</text>

  <line x1="60" y1="291" x2="385" y2="291" stroke="#0f2f2f" stroke-width="1"/>
  <text x="80" y="307" fill="#94a3b8" font-family="Inter, sans-serif" font-size="11">6</text>
  <text x="100" y="307" fill="#94a3b8" font-family="Inter, sans-serif" font-size="11">Whale_Trade</text>
  <text x="270" y="307" fill="#2dd4bf" font-family="Inter, sans-serif" font-size="12" font-weight="700" text-anchor="middle">62.95</text>
  <text x="368" y="307" fill="#64748b" font-family="Inter, sans-serif" font-size="10" text-anchor="end">5000–200000</text>

  <line x1="60" y1="315" x2="385" y2="315" stroke="#0f2f2f" stroke-width="1"/>
  <text x="80" y="331" fill="#94a3b8" font-family="Inter, sans-serif" font-size="11">7–10</text>
  <text x="200" y="331" fill="#4b7070" font-family="Inter, sans-serif" font-size="11" text-anchor="middle">· · ·</text>
  <text x="270" y="331" fill="#2dd4bf" font-family="Inter, sans-serif" font-size="11" text-anchor="middle">62.88–62.70</text>

  <!-- Status USDT -->
  <line x1="60" y1="340" x2="385" y2="340" stroke="#0f3838" stroke-width="1"/>
  <circle cx="80" cy="355" r="4" fill="#0d9488"/>
  <text x="92" y="359" fill="#0d9488" font-family="Inter, sans-serif" font-size="10">Обновлено: только что</text>
  <text x="340" y="359" fill="#4b7070" font-family="Inter, sans-serif" font-size="10" text-anchor="end">↻ 2 мин</text>

  <!-- Panel: BTC/RUB QIMI -->
  <rect x="415" y="118" width="325" height="310" fill="#071e1e" rx="8" stroke="#0f3838" stroke-width="1"/>

  <!-- Header BTC -->
  <rect x="415" y="118" width="325" height="34" fill="url(#hdr)" rx="8"/>
  <rect x="415" y="136" width="325" height="16" fill="#0d3535"/>
  <text x="463" y="139" fill="#5eead4" font-family="Inter, sans-serif" font-size="12" font-weight="600">BTC / RUB</text>
  <rect x="570" y="124" width="46" height="16" fill="#0d9488" rx="4" opacity="0.3"/>
  <text x="593" y="136" fill="#2dd4bf" font-family="Inter, sans-serif" font-size="10" text-anchor="middle">QIMI</text>
  <text x="730" y="136" fill="#1e5050" font-family="Inter, sans-serif" font-size="10" text-anchor="end">10 офферов</text>

  <!-- Column headers BTC -->
  <line x1="415" y1="152" x2="740" y2="152" stroke="#0f3838" stroke-width="1"/>
  <text x="435" y="166" fill="#4b7070" font-family="Inter, sans-serif" font-size="10">#</text>
  <text x="455" y="166" fill="#4b7070" font-family="Inter, sans-serif" font-size="10">Продавец</text>
  <text x="625" y="166" fill="#4b7070" font-family="Inter, sans-serif" font-size="10" text-anchor="middle">Цена (₽)</text>
  <text x="723" y="166" fill="#4b7070" font-family="Inter, sans-serif" font-size="10" text-anchor="end">Лимит</text>
  <line x1="415" y1="170" x2="740" y2="170" stroke="#0f3838" stroke-width="1"/>

  <!-- BTC rows -->
  <rect x="416" y="171" width="323" height="24" fill="#0d9488" opacity="0.08"/>
  <text x="435" y="187" fill="#94a3b8" font-family="Inter, sans-serif" font-size="11">1</text>
  <text x="455" y="187" fill="#e2e8f0" font-family="Inter, sans-serif" font-size="11">BTC_Master</text>
  <text x="625" y="187" fill="#2dd4bf" font-family="Inter, sans-serif" font-size="12" font-weight="700" text-anchor="middle">1 357 400</text>
  <text x="723" y="187" fill="#64748b" font-family="Inter, sans-serif" font-size="10" text-anchor="end">50k–500k</text>

  <line x1="415" y1="195" x2="740" y2="195" stroke="#0f2f2f" stroke-width="1"/>
  <text x="435" y="211" fill="#94a3b8" font-family="Inter, sans-serif" font-size="11">2</text>
  <text x="455" y="211" fill="#e2e8f0" font-family="Inter, sans-serif" font-size="11">CoinPro</text>
  <text x="625" y="211" fill="#2dd4bf" font-family="Inter, sans-serif" font-size="12" font-weight="700" text-anchor="middle">1 355 000</text>
  <text x="723" y="211" fill="#64748b" font-family="Inter, sans-serif" font-size="10" text-anchor="end">100k–1M</text>

  <line x1="415" y1="219" x2="740" y2="219" stroke="#0f2f2f" stroke-width="1"/>
  <text x="435" y="235" fill="#94a3b8" font-family="Inter, sans-serif" font-size="11">3</text>
  <text x="455" y="235" fill="#e2e8f0" font-family="Inter, sans-serif" font-size="11">WhaleDesk</text>
  <text x="625" y="235" fill="#2dd4bf" font-family="Inter, sans-serif" font-size="12" font-weight="700" text-anchor="middle">1 352 800</text>
  <text x="723" y="235" fill="#64748b" font-family="Inter, sans-serif" font-size="10" text-anchor="end">200k–2M</text>

  <line x1="415" y1="243" x2="740" y2="243" stroke="#0f2f2f" stroke-width="1"/>
  <text x="435" y="259" fill="#94a3b8" font-family="Inter, sans-serif" font-size="11">4</text>
  <text x="455" y="259" fill="#cbd5e1" font-family="Inter, sans-serif" font-size="11">TradeBox</text>
  <text x="625" y="259" fill="#2dd4bf" font-family="Inter, sans-serif" font-size="12" font-weight="700" text-anchor="middle">1 350 500</text>
  <text x="723" y="259" fill="#64748b" font-family="Inter, sans-serif" font-size="10" text-anchor="end">50k–300k</text>

  <line x1="415" y1="267" x2="740" y2="267" stroke="#0f2f2f" stroke-width="1"/>
  <text x="435" y="283" fill="#94a3b8" font-family="Inter, sans-serif" font-size="11">5</text>
  <text x="455" y="283" fill="#cbd5e1" font-family="Inter, sans-serif" font-size="11">CryptoBank</text>
  <text x="625" y="283" fill="#2dd4bf" font-family="Inter, sans-serif" font-size="12" font-weight="700" text-anchor="middle">1 349 000</text>
  <text x="723" y="283" fill="#64748b" font-family="Inter, sans-serif" font-size="10" text-anchor="end">80k–800k</text>

  <line x1="415" y1="291" x2="740" y2="291" stroke="#0f2f2f" stroke-width="1"/>
  <text x="435" y="307" fill="#94a3b8" font-family="Inter, sans-serif" font-size="11">6</text>
  <text x="455" y="307" fill="#94a3b8" font-family="Inter, sans-serif" font-size="11">BigPlayer</text>
  <text x="625" y="307" fill="#2dd4bf" font-family="Inter, sans-serif" font-size="12" font-weight="700" text-anchor="middle">1 347 500</text>
  <text x="723" y="307" fill="#64748b" font-family="Inter, sans-serif" font-size="10" text-anchor="end">500k–5M</text>

  <line x1="415" y1="315" x2="740" y2="315" stroke="#0f2f2f" stroke-width="1"/>
  <text x="435" y="331" fill="#94a3b8" font-family="Inter, sans-serif" font-size="11">7–10</text>
  <text x="555" y="331" fill="#4b7070" font-family="Inter, sans-serif" font-size="11" text-anchor="middle">· · ·</text>
  <text x="625" y="331" fill="#2dd4bf" font-family="Inter, sans-serif" font-size="11" text-anchor="middle">1.340k–1.334k</text>

  <!-- Status BTC -->
  <line x1="415" y1="340" x2="740" y2="340" stroke="#0f3838" stroke-width="1"/>
  <circle cx="435" cy="355" r="4" fill="#0d9488"/>
  <text x="447" y="359" fill="#0d9488" font-family="Inter, sans-serif" font-size="10">Обновлено: только что</text>
  <text x="695" y="359" fill="#4b7070" font-family="Inter, sans-serif" font-size="10" text-anchor="end">↻ 2 мин</text>

  <!-- Config card -->
  <rect x="60" y="448" width="345" height="80" fill="#071e1e" rx="8" stroke="#155e5e" stroke-width="1"/>
  <text x="80" y="472" fill="#4b7070" font-family="Inter, sans-serif" font-size="10">config.py · GitHub</text>
  <text x="80" y="492" fill="#e2e8f0" font-family="Inter, sans-serif" font-size="12" font-weight="600">assets = ["USDT", "BTC"]</text>
  <text x="80" y="510" fill="#e2e8f0" font-family="Inter, sans-serif" font-size="12">pay_types = ["Tinkoff", "QIMI"]</text>

  <!-- Heroku card -->
  <rect x="425" y="448" width="315" height="80" fill="#071e1e" rx="8" stroke="#155e5e" stroke-width="1"/>
  <text x="445" y="472" fill="#4b7070" font-family="Inter, sans-serif" font-size="10">Деплой</text>
  <text x="445" y="494" fill="#2dd4bf" font-family="Inter, sans-serif" font-size="14" font-weight="700">Heroku</text>
  <text x="445" y="512" fill="#4b7070" font-family="Inter, sans-serif" font-size="11">Free Dyno · main.py · 24/7</text>

  <!-- Particles -->
  <circle cx="36" cy="180" r="3" fill="#0d9488" opacity="0.3"/>
  <circle cx="762" cy="150" r="5" fill="#0d9488" opacity="0.2"/>
  <circle cx="772" cy="400" r="3" fill="#2dd4bf" opacity="0.2"/>
  <circle cx="28" cy="450" r="4" fill="#0d9488" opacity="0.18"/>
  <circle cx="755" cy="520" r="6" fill="#0d9488" opacity="0.12"/>
  <circle cx="20" cy="320" r="5" fill="#2dd4bf" opacity="0.15"/>
</svg>
