<svg xmlns="http://www.w3.org/2000/svg" width="1200" height="630" viewBox="0 0 1200 630">
  <rect width="1200" height="630" fill="#0a0a12"/>
  <rect x="0" y="0" width="1200" height="630" fill="url(#bg)"/>
  <defs>
    <radialGradient id="bg" cx="50%" cy="0%" r="80%">
      <stop offset="0%" stop-color="#22d3ee" stop-opacity="0.12"/>
      <stop offset="100%" stop-color="#0a0a12" stop-opacity="0"/>
    </radialGradient>
  </defs>
  <!-- Grid -->
  <g stroke="#ffffff" stroke-width="0.5" opacity="0.03">
    <line x1="0" y1="105" x2="1200" y2="105"/>
    <line x1="0" y1="210" x2="1200" y2="210"/>
    <line x1="0" y1="315" x2="1200" y2="315"/>
    <line x1="0" y1="420" x2="1200" y2="420"/>
    <line x1="0" y1="525" x2="1200" y2="525"/>
    <line x1="150" y1="0" x2="150" y2="630"/>
    <line x1="300" y1="0" x2="300" y2="630"/>
    <line x1="450" y1="0" x2="450" y2="630"/>
    <line x1="600" y1="0" x2="600" y2="630"/>
    <line x1="750" y1="0" x2="750" y2="630"/>
    <line x1="900" y1="0" x2="900" y2="630"/>
    <line x1="1050" y1="0" x2="1050" y2="630"/>
  </g>
  <text x="100" y="260" fill="#e2e8f0" font-size="72" font-weight="bold" font-family="sans-serif">Алексей Иванов</text>
  <text x="100" y="340" fill="#22d3ee" font-size="36" font-family="sans-serif">Бэкенд-разработчик</text>
  <text x="100" y="420" fill="#6b7280" font-size="28" font-family="sans-serif">Python · FastAPI · Telegram Bots · API</text>
  <rect x="100" y="460" width="200" height="4" rx="2" fill="#22d3ee" opacity="0.4"/>
</svg>
