<svg xmlns="http://www.w3.org/2000/svg" viewBox="0 0 800 600">
  <defs>
    <linearGradient id="bg" x1="0%" y1="0%" x2="100%" y2="100%">
      <stop offset="0%" stop-color="#0d1f17"/>
      <stop offset="100%" stop-color="#04100b"/>
    </linearGradient>
    <linearGradient id="tableHdr" x1="0%" y1="0%" x2="100%" y2="0%">
      <stop offset="0%" stop-color="#1a3a2a"/>
      <stop offset="100%" stop-color="#0f2a1a"/>
    </linearGradient>
  </defs>

  <!-- Background -->
  <rect width="800" height="600" fill="url(#bg)"/>

  <!-- Grid overlay -->
  <g stroke="#f0b90b" stroke-width="0.5" opacity="0.04">
    <line x1="0" y1="60" x2="800" y2="60"/>
    <line x1="0" y1="120" x2="800" y2="120"/>
    <line x1="0" y1="180" x2="800" y2="180"/>
    <line x1="0" y1="240" x2="800" y2="240"/>
    <line x1="0" y1="300" x2="800" y2="300"/>
    <line x1="0" y1="360" x2="800" y2="360"/>
    <line x1="0" y1="420" x2="800" y2="420"/>
    <line x1="0" y1="480" x2="800" y2="480"/>
    <line x1="0" y1="540" x2="800" y2="540"/>
    <line x1="80" y1="0" x2="80" y2="600"/>
    <line x1="160" y1="0" x2="160" y2="600"/>
    <line x1="240" y1="0" x2="240" y2="600"/>
    <line x1="320" y1="0" x2="320" y2="600"/>
    <line x1="400" y1="0" x2="400" y2="600"/>
    <line x1="480" y1="0" x2="480" y2="600"/>
    <line x1="560" y1="0" x2="560" y2="600"/>
    <line x1="640" y1="0" x2="640" y2="600"/>
    <line x1="720" y1="0" x2="720" y2="600"/>
  </g>

  <!-- Title area -->
  <text x="400" y="88" fill="#f0b90b" font-size="12" font-family="sans-serif" text-anchor="middle" opacity="0.7" letter-spacing="4">BINANCE P2P</text>
  <text x="400" y="126" fill="#ffffff" font-size="27" font-family="sans-serif" font-weight="bold" text-anchor="middle">Многовалютный парсер цен</text>
  <text x="400" y="154" fill="#94a3b8" font-size="13" font-family="sans-serif" text-anchor="middle">Python → Google Sheets</text>

  <!-- Table header -->
  <rect x="60" y="190" width="680" height="34" rx="4" fill="url(#tableHdr)" stroke="#34d399" stroke-width="1"/>
  <text x="100" y="212" fill="#34d399" font-size="11" font-family="monospace" font-weight="bold">АКТИВ</text>
  <text x="215" y="212" fill="#34d399" font-size="11" font-family="monospace">Buy (10K ₽)</text>
  <text x="340" y="212" fill="#34d399" font-size="11" font-family="monospace">Buy</text>
  <text x="430" y="212" fill="#34d399" font-size="11" font-family="monospace">Sell (10K ₽)</text>
  <text x="555" y="212" fill="#34d399" font-size="11" font-family="monospace">Sell</text>
  <!-- Header dividers -->
  <line x1="190" y1="190" x2="190" y2="224" stroke="#34d399" stroke-width="0.5" opacity="0.4"/>
  <line x1="320" y1="190" x2="320" y2="224" stroke="#34d399" stroke-width="0.5" opacity="0.4"/>
  <line x1="412" y1="190" x2="412" y2="224" stroke="#34d399" stroke-width="0.5" opacity="0.4"/>
  <line x1="537" y1="190" x2="537" y2="224" stroke="#34d399" stroke-width="0.5" opacity="0.4"/>
  <line x1="637" y1="190" x2="637" y2="224" stroke="#34d399" stroke-width="0.5" opacity="0.4"/>

  <!-- Row USDT -->
  <rect x="60" y="224" width="680" height="34" fill="#091a10" stroke="#1a3a28" stroke-width="0.5"/>
  <text x="100" y="246" fill="#f0b90b" font-size="12" font-family="monospace" font-weight="bold">USDT</text>
  <text x="215" y="246" fill="#e2e8f0" font-size="12" font-family="monospace">87.35</text>
  <text x="340" y="246" fill="#e2e8f0" font-size="12" font-family="monospace">87.10</text>
  <text x="430" y="246" fill="#e2e8f0" font-size="12" font-family="monospace">86.90</text>
  <text x="555" y="246" fill="#e2e8f0" font-size="12" font-family="monospace">86.75</text>
  <line x1="190" y1="224" x2="190" y2="258" stroke="#1a3a28" stroke-width="0.5"/>
  <line x1="320" y1="224" x2="320" y2="258" stroke="#1a3a28" stroke-width="0.5"/>
  <line x1="412" y1="224" x2="412" y2="258" stroke="#1a3a28" stroke-width="0.5"/>
  <line x1="537" y1="224" x2="537" y2="258" stroke="#1a3a28" stroke-width="0.5"/>
  <line x1="637" y1="224" x2="637" y2="258" stroke="#1a3a28" stroke-width="0.5"/>

  <!-- Row BTC -->
  <rect x="60" y="258" width="680" height="34" fill="#0b1f14" stroke="#1a3a28" stroke-width="0.5"/>
  <text x="100" y="280" fill="#f0b90b" font-size="12" font-family="monospace" font-weight="bold">BTC</text>
  <text x="215" y="280" fill="#e2e8f0" font-size="12" font-family="monospace">2 845 000</text>
  <text x="340" y="280" fill="#e2e8f0" font-size="12" font-family="monospace">2 841 000</text>
  <text x="430" y="280" fill="#e2e8f0" font-size="12" font-family="monospace">2 835 000</text>
  <text x="555" y="280" fill="#e2e8f0" font-size="12" font-family="monospace">2 831 000</text>
  <line x1="190" y1="258" x2="190" y2="292" stroke="#1a3a28" stroke-width="0.5"/>
  <line x1="320" y1="258" x2="320" y2="292" stroke="#1a3a28" stroke-width="0.5"/>
  <line x1="412" y1="258" x2="412" y2="292" stroke="#1a3a28" stroke-width="0.5"/>
  <line x1="537" y1="258" x2="537" y2="292" stroke="#1a3a28" stroke-width="0.5"/>
  <line x1="637" y1="258" x2="637" y2="292" stroke="#1a3a28" stroke-width="0.5"/>

  <!-- Row ETH -->
  <rect x="60" y="292" width="680" height="34" fill="#091a10" stroke="#1a3a28" stroke-width="0.5"/>
  <text x="100" y="314" fill="#f0b90b" font-size="12" font-family="monospace" font-weight="bold">ETH</text>
  <text x="215" y="314" fill="#e2e8f0" font-size="12" font-family="monospace">186 500</text>
  <text x="340" y="314" fill="#e2e8f0" font-size="12" font-family="monospace">186 200</text>
  <text x="430" y="314" fill="#e2e8f0" font-size="12" font-family="monospace">185 800</text>
  <text x="555" y="314" fill="#e2e8f0" font-size="12" font-family="monospace">185 400</text>
  <line x1="190" y1="292" x2="190" y2="326" stroke="#1a3a28" stroke-width="0.5"/>
  <line x1="320" y1="292" x2="320" y2="326" stroke="#1a3a28" stroke-width="0.5"/>
  <line x1="412" y1="292" x2="412" y2="326" stroke="#1a3a28" stroke-width="0.5"/>
  <line x1="537" y1="292" x2="537" y2="326" stroke="#1a3a28" stroke-width="0.5"/>
  <line x1="637" y1="292" x2="637" y2="326" stroke="#1a3a28" stroke-width="0.5"/>

  <!-- Row BNB -->
  <rect x="60" y="326" width="680" height="34" fill="#0b1f14" stroke="#1a3a28" stroke-width="0.5"/>
  <text x="100" y="348" fill="#f0b90b" font-size="12" font-family="monospace" font-weight="bold">BNB</text>
  <text x="215" y="348" fill="#e2e8f0" font-size="12" font-family="monospace">24 800</text>
  <text x="340" y="348" fill="#e2e8f0" font-size="12" font-family="monospace">24 750</text>
  <text x="430" y="348" fill="#e2e8f0" font-size="12" font-family="monospace">24 700</text>
  <text x="555" y="348" fill="#e2e8f0" font-size="12" font-family="monospace">24 650</text>
  <line x1="190" y1="326" x2="190" y2="360" stroke="#1a3a28" stroke-width="0.5"/>
  <line x1="320" y1="326" x2="320" y2="360" stroke="#1a3a28" stroke-width="0.5"/>
  <line x1="412" y1="326" x2="412" y2="360" stroke="#1a3a28" stroke-width="0.5"/>
  <line x1="537" y1="326" x2="537" y2="360" stroke="#1a3a28" stroke-width="0.5"/>
  <line x1="637" y1="326" x2="637" y2="360" stroke="#1a3a28" stroke-width="0.5"/>

  <!-- Bottom border -->
  <rect x="60" y="360" width="680" height="2" rx="1" fill="#34d399" opacity="0.5"/>

  <!-- Payment method badges -->
  <rect x="60" y="380" width="85" height="22" rx="11" fill="#f0b90b" fill-opacity="0.12" stroke="#f0b90b" stroke-width="1" stroke-opacity="0.5"/>
  <text x="103" y="395" fill="#f0b90b" font-size="10" font-family="sans-serif" text-anchor="middle">Tinkoff</text>
  <rect x="155" y="380" width="55" height="22" rx="11" fill="#3b82f6" fill-opacity="0.1" stroke="#3b82f6" stroke-width="1" stroke-opacity="0.3"/>
  <text x="183" y="395" fill="#94a3b8" font-size="10" font-family="sans-serif" text-anchor="middle">СБП</text>
  <rect x="220" y="380" width="115" height="22" rx="11" fill="#8b5cf6" fill-opacity="0.1" stroke="#8b5cf6" stroke-width="1" stroke-opacity="0.3"/>
  <text x="278" y="395" fill="#94a3b8" font-size="10" font-family="sans-serif" text-anchor="middle">Raiffeisenbank</text>

  <!-- Google Sheets label bottom right -->
  <text x="735" y="395" fill="#34d399" font-size="10" font-family="monospace" text-anchor="end" opacity="0.6">→ Google Sheets</text>

  <!-- Particles -->
  <circle cx="44" cy="300" r="3" fill="#f0b90b" opacity="0.25"/>
  <circle cx="756" cy="265" r="4" fill="#34d399" opacity="0.2"/>
  <circle cx="135" cy="468" r="3" fill="#f0b90b" opacity="0.15"/>
  <circle cx="648" cy="455" r="5" fill="#34d399" opacity="0.12"/>
  <circle cx="400" cy="488" r="6" fill="#f0b90b" opacity="0.08"/>
  <circle cx="290" cy="535" r="3" fill="#34d399" opacity="0.12"/>
  <circle cx="510" cy="518" r="4" fill="#f0b90b" opacity="0.1"/>

  <!-- Accent corners -->
  <line x1="30" y1="30" x2="90" y2="30" stroke="#f0b90b" stroke-width="1.5" opacity="0.4"/>
  <line x1="30" y1="30" x2="30" y2="90" stroke="#f0b90b" stroke-width="1.5" opacity="0.4"/>
  <line x1="770" y1="570" x2="710" y2="570" stroke="#34d399" stroke-width="1.5" opacity="0.3"/>
  <line x1="770" y1="570" x2="770" y2="510" stroke="#34d399" stroke-width="1.5" opacity="0.3"/>
</svg>
