<svg xmlns="http://www.w3.org/2000/svg" viewBox="0 0 800 600">
  <defs>
    <linearGradient id="bg" x1="0%" y1="0%" x2="100%" y2="100%">
      <stop offset="0%" stop-color="#0a1520"/>
      <stop offset="100%" stop-color="#040a0f"/>
    </linearGradient>
    <linearGradient id="hdr" x1="0%" y1="0%" x2="100%" y2="0%">
      <stop offset="0%" stop-color="#1a2940"/>
      <stop offset="100%" stop-color="#0f1f35"/>
    </linearGradient>
  </defs>

  <!-- Background -->
  <rect width="800" height="600" fill="url(#bg)"/>

  <!-- Grid overlay -->
  <g stroke="#f59e0b" stroke-width="0.5" opacity="0.05">
    <line x1="0" y1="60" x2="800" y2="60"/>
    <line x1="0" y1="120" x2="800" y2="120"/>
    <line x1="0" y1="180" x2="800" y2="180"/>
    <line x1="0" y1="240" x2="800" y2="240"/>
    <line x1="0" y1="300" x2="800" y2="300"/>
    <line x1="0" y1="360" x2="800" y2="360"/>
    <line x1="0" y1="420" x2="800" y2="420"/>
    <line x1="0" y1="480" x2="800" y2="480"/>
    <line x1="0" y1="540" x2="800" y2="540"/>
    <line x1="80" y1="0" x2="80" y2="600"/>
    <line x1="160" y1="0" x2="160" y2="600"/>
    <line x1="240" y1="0" x2="240" y2="600"/>
    <line x1="320" y1="0" x2="320" y2="600"/>
    <line x1="400" y1="0" x2="400" y2="600"/>
    <line x1="480" y1="0" x2="480" y2="600"/>
    <line x1="560" y1="0" x2="560" y2="600"/>
    <line x1="640" y1="0" x2="640" y2="600"/>
    <line x1="720" y1="0" x2="720" y2="600"/>
  </g>

  <!-- Title -->
  <text x="60" y="72" fill="#f59e0b" font-family="Inter, sans-serif" font-size="26" font-weight="700">Мониторинг P2P · Binance</text>
  <text x="60" y="96" fill="#64748b" font-family="Inter, sans-serif" font-size="13">Python · Google Sheets · Telegram Bot · Heroku · 24/7</text>

  <!-- Spreadsheet panel -->
  <rect x="60" y="118" width="680" height="310" fill="#0b1624" rx="8" stroke="#1e3a5f" stroke-width="1"/>

  <!-- Header row -->
  <rect x="60" y="118" width="680" height="34" fill="url(#hdr)" rx="8"/>
  <rect x="60" y="136" width="680" height="16" fill="#132035"/>

  <text x="115" y="140" fill="#94a3b8" font-family="Inter, sans-serif" font-size="11" text-anchor="middle">Токен</text>
  <text x="230" y="140" fill="#94a3b8" font-family="Inter, sans-serif" font-size="11" text-anchor="middle">Купить</text>
  <text x="360" y="140" fill="#94a3b8" font-family="Inter, sans-serif" font-size="11" text-anchor="middle">Продать</text>
  <text x="490" y="140" fill="#fbbf24" font-family="Inter, sans-serif" font-size="11" font-weight="700" text-anchor="middle">Spread P2P</text>
  <text x="630" y="140" fill="#94a3b8" font-family="Inter, sans-serif" font-size="11" text-anchor="middle">По рынку</text>

  <!-- Column separators -->
  <line x1="163" y1="152" x2="163" y2="428" stroke="#1e3a5f" stroke-width="1"/>
  <line x1="295" y1="152" x2="295" y2="428" stroke="#1e3a5f" stroke-width="1"/>
  <line x1="425" y1="152" x2="425" y2="428" stroke="#1e3a5f" stroke-width="1"/>
  <line x1="555" y1="152" x2="555" y2="428" stroke="#1e3a5f" stroke-width="1"/>

  <!-- Row separators -->
  <line x1="60" y1="188" x2="740" y2="188" stroke="#1a2e45" stroke-width="1"/>
  <line x1="60" y1="224" x2="740" y2="224" stroke="#1a2e45" stroke-width="1"/>
  <line x1="60" y1="260" x2="740" y2="260" stroke="#1a2e45" stroke-width="1"/>
  <line x1="60" y1="296" x2="740" y2="296" stroke="#1a2e45" stroke-width="1"/>
  <line x1="60" y1="332" x2="740" y2="332" stroke="#1a2e45" stroke-width="1"/>
  <line x1="60" y1="368" x2="740" y2="368" stroke="#1a2e45" stroke-width="1"/>
  <line x1="60" y1="404" x2="740" y2="404" stroke="#1a2e45" stroke-width="1"/>

  <!-- Row 1: USDT — green spread -->
  <text x="115" y="175" fill="#e2e8f0" font-family="Inter, sans-serif" font-size="13" font-weight="600" text-anchor="middle">USDT</text>
  <text x="230" y="175" fill="#e2e8f0" font-family="Inter, sans-serif" font-size="13" text-anchor="middle">63.20</text>
  <text x="360" y="175" fill="#e2e8f0" font-family="Inter, sans-serif" font-size="13" text-anchor="middle">63.05</text>
  <rect x="426" y="153" width="128" height="34" fill="#16a34a" opacity="0.2"/>
  <text x="490" y="175" fill="#4ade80" font-family="Inter, sans-serif" font-size="13" font-weight="700" text-anchor="middle">0.24%</text>
  <text x="630" y="175" fill="#94a3b8" font-family="Inter, sans-serif" font-size="13" text-anchor="middle">8.96%</text>

  <!-- Row 2: USDT avg -->
  <text x="115" y="211" fill="#475569" font-family="Inter, sans-serif" font-size="11" text-anchor="middle">USDT avg3</text>
  <text x="230" y="211" fill="#64748b" font-family="Inter, sans-serif" font-size="12" text-anchor="middle">63.21</text>
  <text x="360" y="211" fill="#64748b" font-family="Inter, sans-serif" font-size="12" text-anchor="middle">63.04</text>
  <text x="490" y="211" fill="#60a5fa" font-family="Inter, sans-serif" font-size="12" text-anchor="middle">0.27%</text>
  <text x="630" y="211" fill="#64748b" font-family="Inter, sans-serif" font-size="12" text-anchor="middle">8.96%</text>

  <!-- Row 3: BTC -->
  <text x="115" y="247" fill="#e2e8f0" font-family="Inter, sans-serif" font-size="13" font-weight="600" text-anchor="middle">BTC</text>
  <text x="230" y="247" fill="#e2e8f0" font-family="Inter, sans-serif" font-size="13" text-anchor="middle">1 355 046</text>
  <text x="360" y="247" fill="#e2e8f0" font-family="Inter, sans-serif" font-size="13" text-anchor="middle">1 332 250</text>
  <rect x="426" y="225" width="128" height="34" fill="#16a34a" opacity="0.18"/>
  <text x="490" y="247" fill="#4ade80" font-family="Inter, sans-serif" font-size="13" font-weight="700" text-anchor="middle">1.68%</text>
  <text x="630" y="247" fill="#94a3b8" font-family="Inter, sans-serif" font-size="13" text-anchor="middle">9.34%</text>

  <!-- Row 4: BTC avg -->
  <text x="115" y="283" fill="#475569" font-family="Inter, sans-serif" font-size="11" text-anchor="middle">BTC avg3</text>
  <text x="230" y="283" fill="#64748b" font-family="Inter, sans-serif" font-size="12" text-anchor="middle">1 356 264</text>
  <text x="360" y="283" fill="#64748b" font-family="Inter, sans-serif" font-size="12" text-anchor="middle">1 331 360</text>
  <text x="490" y="283" fill="#60a5fa" font-family="Inter, sans-serif" font-size="12" text-anchor="middle">1.84%</text>
  <text x="630" y="283" fill="#64748b" font-family="Inter, sans-serif" font-size="12" text-anchor="middle">9.34%</text>

  <!-- Row 5: ETH -->
  <text x="115" y="319" fill="#e2e8f0" font-family="Inter, sans-serif" font-size="13" font-weight="600" text-anchor="middle">ETH</text>
  <text x="230" y="319" fill="#e2e8f0" font-family="Inter, sans-serif" font-size="13" text-anchor="middle">72 788</text>
  <text x="360" y="319" fill="#e2e8f0" font-family="Inter, sans-serif" font-size="13" text-anchor="middle">71 322</text>
  <rect x="426" y="297" width="128" height="34" fill="#16a34a" opacity="0.18"/>
  <text x="490" y="319" fill="#4ade80" font-family="Inter, sans-serif" font-size="13" font-weight="700" text-anchor="middle">2.01%</text>
  <text x="630" y="319" fill="#94a3b8" font-family="Inter, sans-serif" font-size="13" text-anchor="middle">10.15%</text>

  <!-- Row 6: BNB — alert (red spread) -->
  <rect x="61" y="333" width="678" height="34" fill="#7f1d1d" opacity="0.12"/>
  <text x="115" y="355" fill="#e2e8f0" font-family="Inter, sans-serif" font-size="13" font-weight="600" text-anchor="middle">BNB</text>
  <text x="230" y="355" fill="#e2e8f0" font-family="Inter, sans-serif" font-size="13" text-anchor="middle">13 600</text>
  <text x="360" y="355" fill="#e2e8f0" font-family="Inter, sans-serif" font-size="13" text-anchor="middle">13 789</text>
  <rect x="426" y="333" width="128" height="34" fill="#dc2626" opacity="0.25"/>
  <text x="490" y="355" fill="#f87171" font-family="Inter, sans-serif" font-size="13" font-weight="700" text-anchor="middle">-1.39%</text>
  <text x="630" y="355" fill="#94a3b8" font-family="Inter, sans-serif" font-size="13" text-anchor="middle">9.71%</text>

  <!-- Row 7: BUSD -->
  <text x="115" y="391" fill="#e2e8f0" font-family="Inter, sans-serif" font-size="13" font-weight="600" text-anchor="middle">BUSD</text>
  <text x="230" y="391" fill="#e2e8f0" font-family="Inter, sans-serif" font-size="13" text-anchor="middle">63.40</text>
  <text x="360" y="391" fill="#e2e8f0" font-family="Inter, sans-serif" font-size="13" text-anchor="middle">63.10</text>
  <rect x="426" y="369" width="128" height="34" fill="#16a34a" opacity="0.15"/>
  <text x="490" y="391" fill="#4ade80" font-family="Inter, sans-serif" font-size="13" font-weight="700" text-anchor="middle">0.47%</text>
  <text x="630" y="391" fill="#94a3b8" font-family="Inter, sans-serif" font-size="13" text-anchor="middle">9.13%</text>

  <!-- Status bar -->
  <rect x="60" y="415" width="680" height="13" fill="#0b1624"/>
  <circle cx="84" cy="421" r="4" fill="#4ade80"/>
  <text x="95" y="425" fill="#4ade80" font-family="Inter, sans-serif" font-size="10">Активен</text>
  <text x="175" y="425" fill="#475569" font-family="Inter, sans-serif" font-size="10">· Обновление: 30 сек · История: 30 мин</text>
  <text x="520" y="425" fill="#f59e0b" font-family="Inter, sans-serif" font-size="10">⚡ Алерты: вкл</text>

  <!-- Telegram notification card -->
  <rect x="60" y="448" width="320" height="72" fill="#111827" rx="8" stroke="#f87171" stroke-width="1" opacity="0.9"/>
  <text x="80" y="470" fill="#94a3b8" font-family="Inter, sans-serif" font-size="10">Telegram-алерт</text>
  <text x="80" y="490" fill="#f87171" font-family="Inter, sans-serif" font-size="13" font-weight="600">⚠ BNB: spread p2p = -1.39%</text>
  <text x="80" y="508" fill="#64748b" font-family="Inter, sans-serif" font-size="11">Значение вышло за пороговый диапазон</text>

  <!-- Calculator card -->
  <rect x="400" y="448" width="340" height="72" fill="#111827" rx="8" stroke="#6366f1" stroke-width="1" opacity="0.9"/>
  <text x="420" y="470" fill="#94a3b8" font-family="Inter, sans-serif" font-size="10">Калькулятор спреда</text>
  <text x="420" y="490" fill="#e2e8f0" font-family="Inter, sans-serif" font-size="13">Купить: 64.25 · Продать: 63.20</text>
  <text x="420" y="508" fill="#fbbf24" font-family="Inter, sans-serif" font-size="13" font-weight="600">Spread = 8.19%</text>

  <!-- Particles -->
  <circle cx="36" cy="200" r="3" fill="#f59e0b" opacity="0.25"/>
  <circle cx="762" cy="140" r="5" fill="#6366f1" opacity="0.2"/>
  <circle cx="770" cy="390" r="3" fill="#f59e0b" opacity="0.18"/>
  <circle cx="28" cy="460" r="4" fill="#4ade80" opacity="0.18"/>
  <circle cx="755" cy="500" r="6" fill="#f59e0b" opacity="0.12"/>
  <circle cx="20" cy="340" r="5" fill="#6366f1" opacity="0.15"/>
  <circle cx="780" cy="260" r="3" fill="#4ade80" opacity="0.2"/>
</svg>
