<svg xmlns="http://www.w3.org/2000/svg" viewBox="0 0 800 600">
  <defs>
    <linearGradient id="bg" x1="0%" y1="0%" x2="100%" y2="100%">
      <stop offset="0%" stop-color="#1a1000"/>
      <stop offset="100%" stop-color="#0c0900"/>
    </linearGradient>
    <linearGradient id="cardGrad" x1="0%" y1="0%" x2="0%" y2="100%">
      <stop offset="0%" stop-color="#f59e0b" stop-opacity="0.12"/>
      <stop offset="100%" stop-color="#f59e0b" stop-opacity="0.02"/>
    </linearGradient>
    <linearGradient id="barGrad" x1="0%" y1="100%" x2="0%" y2="0%">
      <stop offset="0%" stop-color="#f59e0b" stop-opacity="0.25"/>
      <stop offset="100%" stop-color="#f59e0b" stop-opacity="0.85"/>
    </linearGradient>
  </defs>

  <!-- Background -->
  <rect width="800" height="600" fill="url(#bg)"/>

  <!-- Grid overlay -->
  <g stroke="#f59e0b" stroke-width="0.5" opacity="0.05">
    <line x1="0" y1="60" x2="800" y2="60"/>
    <line x1="0" y1="120" x2="800" y2="120"/>
    <line x1="0" y1="180" x2="800" y2="180"/>
    <line x1="0" y1="240" x2="800" y2="240"/>
    <line x1="0" y1="300" x2="800" y2="300"/>
    <line x1="0" y1="360" x2="800" y2="360"/>
    <line x1="0" y1="420" x2="800" y2="420"/>
    <line x1="0" y1="480" x2="800" y2="480"/>
    <line x1="0" y1="540" x2="800" y2="540"/>
    <line x1="80" y1="0" x2="80" y2="600"/>
    <line x1="160" y1="0" x2="160" y2="600"/>
    <line x1="240" y1="0" x2="240" y2="600"/>
    <line x1="320" y1="0" x2="320" y2="600"/>
    <line x1="400" y1="0" x2="400" y2="600"/>
    <line x1="480" y1="0" x2="480" y2="600"/>
    <line x1="560" y1="0" x2="560" y2="600"/>
    <line x1="640" y1="0" x2="640" y2="600"/>
    <line x1="720" y1="0" x2="720" y2="600"/>
  </g>

  <!-- Title block -->
  <text x="60" y="65" font-family="'Inter', monospace" font-size="22" font-weight="600" fill="#f59e0b" opacity="0.95">Binance P2P Monitor</text>
  <text x="60" y="90" font-family="'Inter', monospace" font-size="12" fill="#94a3b8">Автоматический мониторинг P2P-рынка · Google Sheets · Telegram-уведомления</text>

  <!-- Metric Card 1: USDT Price -->
  <rect x="60" y="118" width="155" height="88" rx="8" fill="url(#cardGrad)" stroke="#f59e0b" stroke-width="1" stroke-opacity="0.35"/>
  <text x="78" y="144" font-family="monospace" font-size="10" fill="#94a3b8">USDT / RUB</text>
  <text x="78" y="170" font-family="monospace" font-size="23" font-weight="700" fill="#f59e0b">90.42</text>
  <text x="78" y="190" font-family="monospace" font-size="10" fill="#10b981">▲ +0.8% к споту</text>

  <!-- Metric Card 2: P2P Spread -->
  <rect x="232" y="118" width="155" height="88" rx="8" fill="url(#cardGrad)" stroke="#f59e0b" stroke-width="1" stroke-opacity="0.35"/>
  <text x="250" y="144" font-family="monospace" font-size="10" fill="#94a3b8">Спред P2P</text>
  <text x="250" y="170" font-family="monospace" font-size="23" font-weight="700" fill="#f59e0b">3.24%</text>
  <text x="250" y="190" font-family="monospace" font-size="10" fill="#ef4444">⚡ выше порога</text>

  <!-- Metric Card 3: Market Spread -->
  <rect x="404" y="118" width="155" height="88" rx="8" fill="url(#cardGrad)" stroke="#f59e0b" stroke-width="1" stroke-opacity="0.35"/>
  <text x="422" y="144" font-family="monospace" font-size="10" fill="#94a3b8">Спред рынка</text>
  <text x="422" y="170" font-family="monospace" font-size="23" font-weight="700" fill="#f59e0b">8.19%</text>
  <text x="422" y="190" font-family="monospace" font-size="10" fill="#94a3b8">P2P vs Spot</text>

  <!-- Metric Card 4: Uptime -->
  <rect x="576" y="118" width="164" height="88" rx="8" fill="url(#cardGrad)" stroke="#f59e0b" stroke-width="1" stroke-opacity="0.35"/>
  <text x="594" y="144" font-family="monospace" font-size="10" fill="#94a3b8">Обновление</text>
  <text x="594" y="170" font-family="monospace" font-size="23" font-weight="700" fill="#f59e0b">30s</text>
  <text x="594" y="190" font-family="monospace" font-size="10" fill="#94a3b8">24/7 · Heroku</text>

  <!-- Spread history chart panel -->
  <rect x="60" y="232" width="508" height="178" rx="8" fill="#0f0e00" stroke="#f59e0b" stroke-width="1" stroke-opacity="0.2"/>
  <text x="80" y="258" font-family="monospace" font-size="11" fill="#94a3b8">История спредов P2P · интервал 30 мин</text>

  <!-- Bars (spread history) - bottom baseline y=388 -->
  <rect x="88"  y="363" width="26" height="25" rx="2" fill="url(#barGrad)"/>
  <rect x="124" y="348" width="26" height="40" rx="2" fill="url(#barGrad)"/>
  <rect x="160" y="338" width="26" height="50" rx="2" fill="url(#barGrad)"/>
  <rect x="196" y="353" width="26" height="35" rx="2" fill="url(#barGrad)"/>
  <rect x="232" y="343" width="26" height="45" rx="2" fill="url(#barGrad)"/>
  <rect x="268" y="328" width="26" height="60" rx="2" fill="url(#barGrad)"/>
  <rect x="304" y="358" width="26" height="30" rx="2" fill="url(#barGrad)"/>
  <rect x="340" y="336" width="26" height="52" rx="2" fill="url(#barGrad)"/>
  <rect x="376" y="323" width="26" height="65" rx="2" fill="url(#barGrad)"/>
  <rect x="412" y="346" width="26" height="42" rx="2" fill="url(#barGrad)"/>
  <rect x="448" y="313" width="26" height="75" rx="2" fill="#f59e0b" opacity="0.9"/>
  <rect x="484" y="340" width="26" height="48" rx="2" fill="url(#barGrad)"/>

  <!-- Threshold line -->
  <line x1="78" y1="338" x2="525" y2="338" stroke="#ef4444" stroke-width="1" stroke-dasharray="4,3" opacity="0.55"/>
  <text x="530" y="342" font-family="monospace" font-size="9" fill="#ef4444" opacity="0.7">порог</text>

  <!-- X-axis labels -->
  <text x="88"  y="406" font-family="monospace" font-size="9" fill="#64748b">00:00</text>
  <text x="196" y="406" font-family="monospace" font-size="9" fill="#64748b">06:00</text>
  <text x="304" y="406" font-family="monospace" font-size="9" fill="#64748b">12:00</text>
  <text x="412" y="406" font-family="monospace" font-size="9" fill="#64748b">18:00</text>
  <text x="484" y="406" font-family="monospace" font-size="9" fill="#64748b">21:00</text>

  <!-- Telegram notification panel -->
  <rect x="585" y="232" width="155" height="178" rx="8" fill="#0a1520" stroke="#22d3ee" stroke-width="1" stroke-opacity="0.45"/>
  <text x="605" y="258" font-family="monospace" font-size="11" fill="#22d3ee">✈ Telegram</text>

  <!-- Notification bubble -->
  <rect x="598" y="266" width="130" height="78" rx="6" fill="#0f1f2a" stroke="#22d3ee" stroke-width="0.5" stroke-opacity="0.3"/>
  <text x="608" y="284" font-family="monospace" font-size="9" fill="#94a3b8">🔔 Сигнал P2P</text>
  <text x="608" y="300" font-family="monospace" font-size="10" font-weight="600" fill="#f59e0b">USDT спред: 3.24%</text>
  <text x="608" y="315" font-family="monospace" font-size="9" fill="#94a3b8">Порог: &gt; 3.0%</text>
  <text x="608" y="328" font-family="monospace" font-size="8" fill="#64748b">14:30 · auto</text>

  <!-- Pairs list -->
  <text x="605" y="368" font-family="monospace" font-size="9" fill="#64748b">Пары:</text>
  <text x="605" y="383" font-family="monospace" font-size="10" fill="#f59e0b">USDT · BTC · ETH · BNB</text>
  <text x="605" y="397" font-family="monospace" font-size="9" fill="#64748b">Тинькофф</text>

  <!-- Stack badges -->
  <rect x="60" y="440" width="700" height="50" rx="8" fill="#140f00" stroke="#f59e0b" stroke-width="0.5" stroke-opacity="0.18"/>
  <text x="80" y="462" font-family="monospace" font-size="9" fill="#64748b">Stack:</text>

  <rect x="116" y="448" width="52" height="22" rx="4" fill="#f59e0b" fill-opacity="0.12" stroke="#f59e0b" stroke-width="0.5" stroke-opacity="0.45"/>
  <text x="142" y="463" font-family="monospace" font-size="9" fill="#f59e0b" text-anchor="middle">Python</text>

  <rect x="176" y="448" width="104" height="22" rx="4" fill="#f59e0b" fill-opacity="0.12" stroke="#f59e0b" stroke-width="0.5" stroke-opacity="0.45"/>
  <text x="228" y="463" font-family="monospace" font-size="9" fill="#f59e0b" text-anchor="middle">Binance P2P API</text>

  <rect x="288" y="448" width="108" height="22" rx="4" fill="#f59e0b" fill-opacity="0.12" stroke="#f59e0b" stroke-width="0.5" stroke-opacity="0.45"/>
  <text x="342" y="463" font-family="monospace" font-size="9" fill="#f59e0b" text-anchor="middle">Google Sheets API</text>

  <rect x="404" y="448" width="70" height="22" rx="4" fill="#22d3ee" fill-opacity="0.08" stroke="#22d3ee" stroke-width="0.5" stroke-opacity="0.45"/>
  <text x="439" y="463" font-family="monospace" font-size="9" fill="#22d3ee" text-anchor="middle">Telegram</text>

  <rect x="482" y="448" width="52" height="22" rx="4" fill="#f59e0b" fill-opacity="0.12" stroke="#f59e0b" stroke-width="0.5" stroke-opacity="0.45"/>
  <text x="508" y="463" font-family="monospace" font-size="9" fill="#f59e0b" text-anchor="middle">Heroku</text>

  <rect x="542" y="448" width="52" height="22" rx="4" fill="#f59e0b" fill-opacity="0.12" stroke="#f59e0b" stroke-width="0.5" stroke-opacity="0.45"/>
  <text x="568" y="463" font-family="monospace" font-size="9" fill="#f59e0b" text-anchor="middle">GitHub</text>

  <!-- Particles -->
  <circle cx="752" cy="100" r="3" fill="#f59e0b" opacity="0.3"/>
  <circle cx="28" cy="310" r="5" fill="#f59e0b" opacity="0.12"/>
  <circle cx="782" cy="420" r="4" fill="#f59e0b" opacity="0.18"/>
  <circle cx="42" cy="175" r="3" fill="#f59e0b" opacity="0.22"/>
  <circle cx="772" cy="510" r="6" fill="#f59e0b" opacity="0.08"/>
  <circle cx="18" cy="490" r="4" fill="#f59e0b" opacity="0.15"/>

  <!-- Corner accent -->
  <line x1="742" y1="38" x2="782" y2="38" stroke="#f59e0b" stroke-width="1.5" opacity="0.35"/>
  <line x1="782" y1="38" x2="782" y2="68" stroke="#f59e0b" stroke-width="1.5" opacity="0.35"/>
</svg>
