<svg xmlns="http://www.w3.org/2000/svg" width="800" height="600" viewBox="0 0 800 600">
  <defs>
    <linearGradient id="bg" x1="0%" y1="0%" x2="100%" y2="100%">
      <stop offset="0%" stop-color="#0f2744"/>
      <stop offset="100%" stop-color="#051020"/>
    </linearGradient>
    <marker id="arrow" markerWidth="8" markerHeight="6" refX="7" refY="3" orient="auto">
      <polygon points="0 0, 8 3, 0 6" fill="#22d3ee" opacity="0.7"/>
    </marker>
  </defs>
  <rect width="800" height="600" fill="url(#bg)"/>
  <!-- Grid -->
  <g stroke="#22d3ee" stroke-width="0.5" opacity="0.06">
    <line x1="0" y1="75" x2="800" y2="75"/><line x1="0" y1="150" x2="800" y2="150"/>
    <line x1="0" y1="225" x2="800" y2="225"/><line x1="0" y1="300" x2="800" y2="300"/>
    <line x1="0" y1="375" x2="800" y2="375"/><line x1="0" y1="450" x2="800" y2="450"/>
    <line x1="0" y1="525" x2="800" y2="525"/>
    <line x1="100" y1="0" x2="100" y2="600"/><line x1="200" y1="0" x2="200" y2="600"/>
    <line x1="300" y1="0" x2="300" y2="600"/><line x1="400" y1="0" x2="400" y2="600"/>
    <line x1="500" y1="0" x2="500" y2="600"/><line x1="600" y1="0" x2="600" y2="600"/>
    <line x1="700" y1="0" x2="700" y2="600"/>
  </g>
  <!-- Chat bubbles -->
  <rect x="100" y="160" width="240" height="70" rx="12" fill="#1a3a5c" stroke="#22d3ee" stroke-width="1" opacity="0.9"/>
  <rect x="112" y="172" width="180" height="10" rx="5" fill="#22d3ee" opacity="0.5"/>
  <rect x="112" y="192" width="140" height="8" rx="4" fill="#22d3ee" opacity="0.3"/>
  <rect x="112" y="208" width="100" height="8" rx="4" fill="#22d3ee" opacity="0.2"/>
  <polygon points="110,230 130,230 110,245" fill="#1a3a5c"/>

  <rect x="460" y="240" width="240" height="70" rx="12" fill="#0d2140" stroke="#38bdf8" stroke-width="1" opacity="0.9"/>
  <rect x="472" y="252" width="160" height="10" rx="5" fill="#38bdf8" opacity="0.5"/>
  <rect x="472" y="272" width="120" height="8" rx="4" fill="#38bdf8" opacity="0.3"/>
  <rect x="472" y="288" width="80" height="8" rx="4" fill="#38bdf8" opacity="0.2"/>
  <polygon points="690,310 710,310 710,325" fill="#0d2140"/>

  <rect x="100" y="340" width="240" height="70" rx="12" fill="#1a3a5c" stroke="#22d3ee" stroke-width="1" opacity="0.9"/>
  <rect x="112" y="352" width="200" height="10" rx="5" fill="#22d3ee" opacity="0.5"/>
  <rect x="112" y="372" width="160" height="8" rx="4" fill="#22d3ee" opacity="0.3"/>
  <rect x="112" y="388" width="100" height="8" rx="4" fill="#22d3ee" opacity="0.2"/>
  <polygon points="110,410 130,410 110,425" fill="#1a3a5c"/>

  <!-- Bot icon -->
  <circle cx="640" cy="140" r="60" fill="#0d2140" stroke="#22d3ee" stroke-width="1.5" opacity="0.8"/>
  <rect x="608" y="115" width="64" height="50" rx="8" fill="#1a3a5c"/>
  <circle cx="625" cy="135" r="6" fill="#22d3ee" opacity="0.8"/>
  <circle cx="655" cy="135" r="6" fill="#22d3ee" opacity="0.8"/>
  <path d="M620 152 Q640 162 660 152" stroke="#22d3ee" stroke-width="2" fill="none" stroke-linecap="round" opacity="0.7"/>
  <rect x="630" y="108" width="20" height="10" rx="3" fill="#22d3ee" opacity="0.5"/>

  <!-- Floating particles -->
  <circle cx="200" cy="100" r="3" fill="#22d3ee" opacity="0.4"/>
  <circle cx="500" cy="180" r="2" fill="#22d3ee" opacity="0.3"/>
  <circle cx="350" cy="480" r="4" fill="#22d3ee" opacity="0.25"/>
  <circle cx="680" cy="500" r="2.5" fill="#22d3ee" opacity="0.35"/>
  <circle cx="80" cy="500" r="3" fill="#22d3ee" opacity="0.3"/>
</svg>
