<svg xmlns="http://www.w3.org/2000/svg" viewBox="0 0 800 600">
  <defs>
    <linearGradient id="bg" x1="0%" y1="0%" x2="100%" y2="100%">
      <stop offset="0%" stop-color="#0a0a20"/>
      <stop offset="100%" stop-color="#04040f"/>
    </linearGradient>
    <linearGradient id="barGrad" x1="0%" y1="0%" x2="0%" y2="100%">
      <stop offset="0%" stop-color="#6366f1" stop-opacity="0.9"/>
      <stop offset="100%" stop-color="#4338ca" stop-opacity="0.7"/>
    </linearGradient>
  </defs>

  <!-- Фон -->
  <rect width="800" height="600" fill="url(#bg)"/>

  <!-- Сетка-оверлей -->
  <g stroke="#6366f1" stroke-width="0.5" opacity="0.05">
    <line x1="0" y1="60" x2="800" y2="60"/>
    <line x1="0" y1="120" x2="800" y2="120"/>
    <line x1="0" y1="180" x2="800" y2="180"/>
    <line x1="0" y1="240" x2="800" y2="240"/>
    <line x1="0" y1="300" x2="800" y2="300"/>
    <line x1="0" y1="360" x2="800" y2="360"/>
    <line x1="0" y1="420" x2="800" y2="420"/>
    <line x1="0" y1="480" x2="800" y2="480"/>
    <line x1="0" y1="540" x2="800" y2="540"/>
    <line x1="80" y1="0" x2="80" y2="600"/>
    <line x1="160" y1="0" x2="160" y2="600"/>
    <line x1="240" y1="0" x2="240" y2="600"/>
    <line x1="320" y1="0" x2="320" y2="600"/>
    <line x1="400" y1="0" x2="400" y2="600"/>
    <line x1="480" y1="0" x2="480" y2="600"/>
    <line x1="560" y1="0" x2="560" y2="600"/>
    <line x1="640" y1="0" x2="640" y2="600"/>
    <line x1="720" y1="0" x2="720" y2="600"/>
  </g>

  <!-- PDF417 штрих-код (имитация) — центральный элемент -->
  <!-- Ряд 1 -->
  <g fill="#6366f1" opacity="0.85">
    <!-- Левый стоп-символ -->
    <rect x="160" y="180" width="6" height="18"/>
    <rect x="169" y="180" width="3" height="18"/>
    <!-- Данные ряд 1 — паттерн баров -->
    <rect x="175" y="180" width="8" height="18"/>
    <rect x="186" y="180" width="4" height="18"/>
    <rect x="193" y="180" width="6" height="18"/>
    <rect x="202" y="180" width="3" height="18"/>
    <rect x="208" y="180" width="9" height="18"/>
    <rect x="220" y="180" width="4" height="18"/>
    <rect x="227" y="180" width="7" height="18"/>
    <rect x="237" y="180" width="3" height="18"/>
    <rect x="243" y="180" width="5" height="18"/>
    <rect x="251" y="180" width="8" height="18"/>
    <rect x="262" y="180" width="4" height="18"/>
    <rect x="269" y="180" width="6" height="18"/>
    <rect x="278" y="180" width="3" height="18"/>
    <rect x="284" y="180" width="9" height="18"/>
    <rect x="296" y="180" width="4" height="18"/>
    <rect x="303" y="180" width="5" height="18"/>
    <rect x="311" y="180" width="7" height="18"/>
    <rect x="321" y="180" width="3" height="18"/>
    <rect x="327" y="180" width="8" height="18"/>
    <rect x="338" y="180" width="4" height="18"/>
    <rect x="345" y="180" width="6" height="18"/>
    <rect x="354" y="180" width="3" height="18"/>
    <rect x="360" y="180" width="9" height="18"/>
    <rect x="372" y="180" width="4" height="18"/>
    <rect x="379" y="180" width="5" height="18"/>
    <rect x="387" y="180" width="7" height="18"/>
    <rect x="397" y="180" width="3" height="18"/>
    <rect x="403" y="180" width="8" height="18"/>
    <rect x="414" y="180" width="4" height="18"/>
    <rect x="421" y="180" width="6" height="18"/>
    <rect x="430" y="180" width="3" height="18"/>
    <rect x="436" y="180" width="9" height="18"/>
    <rect x="448" y="180" width="4" height="18"/>
    <rect x="455" y="180" width="5" height="18"/>
    <rect x="463" y="180" width="7" height="18"/>
    <rect x="473" y="180" width="3" height="18"/>
    <rect x="479" y="180" width="8" height="18"/>
    <rect x="490" y="180" width="4" height="18"/>
    <rect x="497" y="180" width="6" height="18"/>
    <rect x="506" y="180" width="3" height="18"/>
    <rect x="512" y="180" width="9" height="18"/>
    <rect x="524" y="180" width="4" height="18"/>
    <rect x="531" y="180" width="5" height="18"/>
    <rect x="539" y="180" width="7" height="18"/>
    <rect x="549" y="180" width="3" height="18"/>
    <rect x="555" y="180" width="8" height="18"/>
    <rect x="566" y="180" width="4" height="18"/>
    <rect x="573" y="180" width="6" height="18"/>
    <rect x="582" y="180" width="3" height="18"/>
    <!-- Правый стоп-символ -->
    <rect x="590" y="180" width="9" height="18"/>
    <rect x="602" y="180" width="3" height="18"/>
    <rect x="608" y="180" width="6" height="18"/>
  </g>

  <!-- Ряд 2 -->
  <g fill="#6366f1" opacity="0.8">
    <rect x="160" y="202" width="6" height="18"/>
    <rect x="169" y="202" width="3" height="18"/>
    <rect x="175" y="202" width="5" height="18"/>
    <rect x="183" y="202" width="8" height="18"/>
    <rect x="194" y="202" width="3" height="18"/>
    <rect x="200" y="202" width="7" height="18"/>
    <rect x="210" y="202" width="4" height="18"/>
    <rect x="217" y="202" width="6" height="18"/>
    <rect x="226" y="202" width="9" height="18"/>
    <rect x="238" y="202" width="3" height="18"/>
    <rect x="244" y="202" width="5" height="18"/>
    <rect x="252" y="202" width="8" height="18"/>
    <rect x="263" y="202" width="4" height="18"/>
    <rect x="270" y="202" width="7" height="18"/>
    <rect x="280" y="202" width="3" height="18"/>
    <rect x="286" y="202" width="6" height="18"/>
    <rect x="295" y="202" width="9" height="18"/>
    <rect x="307" y="202" width="3" height="18"/>
    <rect x="313" y="202" width="5" height="18"/>
    <rect x="321" y="202" width="8" height="18"/>
    <rect x="332" y="202" width="4" height="18"/>
    <rect x="339" y="202" width="7" height="18"/>
    <rect x="349" y="202" width="3" height="18"/>
    <rect x="355" y="202" width="6" height="18"/>
    <rect x="364" y="202" width="9" height="18"/>
    <rect x="376" y="202" width="3" height="18"/>
    <rect x="382" y="202" width="5" height="18"/>
    <rect x="390" y="202" width="8" height="18"/>
    <rect x="401" y="202" width="4" height="18"/>
    <rect x="408" y="202" width="7" height="18"/>
    <rect x="418" y="202" width="3" height="18"/>
    <rect x="424" y="202" width="6" height="18"/>
    <rect x="433" y="202" width="9" height="18"/>
    <rect x="445" y="202" width="3" height="18"/>
    <rect x="451" y="202" width="5" height="18"/>
    <rect x="459" y="202" width="8" height="18"/>
    <rect x="470" y="202" width="4" height="18"/>
    <rect x="477" y="202" width="7" height="18"/>
    <rect x="487" y="202" width="3" height="18"/>
    <rect x="493" y="202" width="6" height="18"/>
    <rect x="502" y="202" width="9" height="18"/>
    <rect x="514" y="202" width="3" height="18"/>
    <rect x="520" y="202" width="5" height="18"/>
    <rect x="528" y="202" width="8" height="18"/>
    <rect x="539" y="202" width="4" height="18"/>
    <rect x="546" y="202" width="7" height="18"/>
    <rect x="556" y="202" width="3" height="18"/>
    <rect x="562" y="202" width="6" height="18"/>
    <rect x="571" y="202" width="9" height="18"/>
    <rect x="583" y="202" width="3" height="18"/>
    <rect x="590" y="202" width="9" height="18"/>
    <rect x="602" y="202" width="3" height="18"/>
    <rect x="608" y="202" width="6" height="18"/>
  </g>

  <!-- Ряд 3 -->
  <g fill="#818cf8" opacity="0.75">
    <rect x="160" y="224" width="6" height="18"/>
    <rect x="169" y="224" width="3" height="18"/>
    <rect x="175" y="224" width="9" height="18"/>
    <rect x="187" y="224" width="3" height="18"/>
    <rect x="193" y="224" width="6" height="18"/>
    <rect x="202" y="224" width="4" height="18"/>
    <rect x="209" y="224" width="8" height="18"/>
    <rect x="220" y="224" width="5" height="18"/>
    <rect x="228" y="224" width="3" height="18"/>
    <rect x="234" y="224" width="7" height="18"/>
    <rect x="244" y="224" width="4" height="18"/>
    <rect x="251" y="224" width="9" height="18"/>
    <rect x="263" y="224" width="3" height="18"/>
    <rect x="269" y="224" width="6" height="18"/>
    <rect x="278" y="224" width="4" height="18"/>
    <rect x="285" y="224" width="8" height="18"/>
    <rect x="296" y="224" width="5" height="18"/>
    <rect x="304" y="224" width="3" height="18"/>
    <rect x="310" y="224" width="7" height="18"/>
    <rect x="320" y="224" width="4" height="18"/>
    <rect x="327" y="224" width="9" height="18"/>
    <rect x="339" y="224" width="3" height="18"/>
    <rect x="345" y="224" width="6" height="18"/>
    <rect x="354" y="224" width="4" height="18"/>
    <rect x="361" y="224" width="8" height="18"/>
    <rect x="372" y="224" width="5" height="18"/>
    <rect x="380" y="224" width="3" height="18"/>
    <rect x="386" y="224" width="7" height="18"/>
    <rect x="396" y="224" width="4" height="18"/>
    <rect x="403" y="224" width="9" height="18"/>
    <rect x="415" y="224" width="3" height="18"/>
    <rect x="421" y="224" width="6" height="18"/>
    <rect x="430" y="224" width="4" height="18"/>
    <rect x="437" y="224" width="8" height="18"/>
    <rect x="448" y="224" width="5" height="18"/>
    <rect x="456" y="224" width="3" height="18"/>
    <rect x="462" y="224" width="7" height="18"/>
    <rect x="472" y="224" width="4" height="18"/>
    <rect x="479" y="224" width="9" height="18"/>
    <rect x="491" y="224" width="3" height="18"/>
    <rect x="497" y="224" width="6" height="18"/>
    <rect x="506" y="224" width="4" height="18"/>
    <rect x="513" y="224" width="8" height="18"/>
    <rect x="524" y="224" width="5" height="18"/>
    <rect x="532" y="224" width="3" height="18"/>
    <rect x="538" y="224" width="7" height="18"/>
    <rect x="548" y="224" width="4" height="18"/>
    <rect x="555" y="224" width="9" height="18"/>
    <rect x="567" y="224" width="3" height="18"/>
    <rect x="573" y="224" width="6" height="18"/>
    <rect x="582" y="224" width="4" height="18"/>
    <rect x="590" y="224" width="9" height="18"/>
    <rect x="602" y="224" width="3" height="18"/>
    <rect x="608" y="224" width="6" height="18"/>
  </g>

  <!-- Ряд 4 -->
  <g fill="#6366f1" opacity="0.7">
    <rect x="160" y="246" width="6" height="18"/>
    <rect x="169" y="246" width="3" height="18"/>
    <rect x="175" y="246" width="7" height="18"/>
    <rect x="185" y="246" width="4" height="18"/>
    <rect x="192" y="246" width="9" height="18"/>
    <rect x="204" y="246" width="3" height="18"/>
    <rect x="210" y="246" width="5" height="18"/>
    <rect x="218" y="246" width="8" height="18"/>
    <rect x="229" y="246" width="4" height="18"/>
    <rect x="236" y="246" width="6" height="18"/>
    <rect x="245" y="246" width="3" height="18"/>
    <rect x="251" y="246" width="9" height="18"/>
    <rect x="263" y="246" width="4" height="18"/>
    <rect x="270" y="246" width="7" height="18"/>
    <rect x="280" y="246" width="3" height="18"/>
    <rect x="286" y="246" width="5" height="18"/>
    <rect x="294" y="246" width="8" height="18"/>
    <rect x="305" y="246" width="4" height="18"/>
    <rect x="312" y="246" width="6" height="18"/>
    <rect x="321" y="246" width="3" height="18"/>
    <rect x="327" y="246" width="9" height="18"/>
    <rect x="339" y="246" width="4" height="18"/>
    <rect x="346" y="246" width="7" height="18"/>
    <rect x="356" y="246" width="3" height="18"/>
    <rect x="362" y="246" width="5" height="18"/>
    <rect x="370" y="246" width="8" height="18"/>
    <rect x="381" y="246" width="4" height="18"/>
    <rect x="388" y="246" width="6" height="18"/>
    <rect x="397" y="246" width="3" height="18"/>
    <rect x="403" y="246" width="9" height="18"/>
    <rect x="415" y="246" width="4" height="18"/>
    <rect x="422" y="246" width="7" height="18"/>
    <rect x="432" y="246" width="3" height="18"/>
    <rect x="438" y="246" width="5" height="18"/>
    <rect x="446" y="246" width="8" height="18"/>
    <rect x="457" y="246" width="4" height="18"/>
    <rect x="464" y="246" width="6" height="18"/>
    <rect x="473" y="246" width="3" height="18"/>
    <rect x="479" y="246" width="9" height="18"/>
    <rect x="491" y="246" width="4" height="18"/>
    <rect x="498" y="246" width="7" height="18"/>
    <rect x="508" y="246" width="3" height="18"/>
    <rect x="514" y="246" width="5" height="18"/>
    <rect x="522" y="246" width="8" height="18"/>
    <rect x="533" y="246" width="4" height="18"/>
    <rect x="540" y="246" width="6" height="18"/>
    <rect x="549" y="246" width="3" height="18"/>
    <rect x="555" y="246" width="9" height="18"/>
    <rect x="567" y="246" width="4" height="18"/>
    <rect x="574" y="246" width="7" height="18"/>
    <rect x="584" y="246" width="3" height="18"/>
    <rect x="590" y="246" width="9" height="18"/>
    <rect x="602" y="246" width="3" height="18"/>
    <rect x="608" y="246" width="6" height="18"/>
  </g>

  <!-- Ряд 5 -->
  <g fill="#818cf8" opacity="0.65">
    <rect x="160" y="268" width="6" height="18"/>
    <rect x="169" y="268" width="3" height="18"/>
    <rect x="175" y="268" width="6" height="18"/>
    <rect x="184" y="268" width="9" height="18"/>
    <rect x="196" y="268" width="3" height="18"/>
    <rect x="202" y="268" width="7" height="18"/>
    <rect x="212" y="268" width="4" height="18"/>
    <rect x="219" y="268" width="5" height="18"/>
    <rect x="227" y="268" width="8" height="18"/>
    <rect x="238" y="268" width="3" height="18"/>
    <rect x="244" y="268" width="6" height="18"/>
    <rect x="253" y="268" width="9" height="18"/>
    <rect x="265" y="268" width="3" height="18"/>
    <rect x="271" y="268" width="7" height="18"/>
    <rect x="281" y="268" width="4" height="18"/>
    <rect x="288" y="268" width="5" height="18"/>
    <rect x="296" y="268" width="8" height="18"/>
    <rect x="307" y="268" width="3" height="18"/>
    <rect x="313" y="268" width="6" height="18"/>
    <rect x="322" y="268" width="9" height="18"/>
    <rect x="334" y="268" width="3" height="18"/>
    <rect x="340" y="268" width="7" height="18"/>
    <rect x="350" y="268" width="4" height="18"/>
    <rect x="357" y="268" width="5" height="18"/>
    <rect x="365" y="268" width="8" height="18"/>
    <rect x="376" y="268" width="3" height="18"/>
    <rect x="382" y="268" width="6" height="18"/>
    <rect x="391" y="268" width="9" height="18"/>
    <rect x="403" y="268" width="3" height="18"/>
    <rect x="409" y="268" width="7" height="18"/>
    <rect x="419" y="268" width="4" height="18"/>
    <rect x="426" y="268" width="5" height="18"/>
    <rect x="434" y="268" width="8" height="18"/>
    <rect x="445" y="268" width="3" height="18"/>
    <rect x="451" y="268" width="6" height="18"/>
    <rect x="460" y="268" width="9" height="18"/>
    <rect x="472" y="268" width="3" height="18"/>
    <rect x="478" y="268" width="7" height="18"/>
    <rect x="488" y="268" width="4" height="18"/>
    <rect x="495" y="268" width="5" height="18"/>
    <rect x="503" y="268" width="8" height="18"/>
    <rect x="514" y="268" width="3" height="18"/>
    <rect x="520" y="268" width="6" height="18"/>
    <rect x="529" y="268" width="9" height="18"/>
    <rect x="541" y="268" width="3" height="18"/>
    <rect x="547" y="268" width="7" height="18"/>
    <rect x="557" y="268" width="4" height="18"/>
    <rect x="564" y="268" width="5" height="18"/>
    <rect x="572" y="268" width="8" height="18"/>
    <rect x="583" y="268" width="3" height="18"/>
    <rect x="590" y="268" width="9" height="18"/>
    <rect x="602" y="268" width="3" height="18"/>
    <rect x="608" y="268" width="6" height="18"/>
  </g>

  <!-- Ряды 6–12 с уменьшающейся яркостью -->
  <g fill="#6366f1" opacity="0.55">
    <rect x="160" y="290" width="6" height="18"/><rect x="169" y="290" width="3" height="18"/>
    <rect x="175" y="290" width="8" height="18"/><rect x="186" y="290" width="4" height="18"/>
    <rect x="194" y="290" width="5" height="18"/><rect x="202" y="290" width="9" height="18"/>
    <rect x="214" y="290" width="3" height="18"/><rect x="220" y="290" width="7" height="18"/>
    <rect x="230" y="290" width="4" height="18"/><rect x="237" y="290" width="6" height="18"/>
    <rect x="246" y="290" width="8" height="18"/><rect x="257" y="290" width="3" height="18"/>
    <rect x="263" y="290" width="5" height="18"/><rect x="271" y="290" width="9" height="18"/>
    <rect x="283" y="290" width="4" height="18"/><rect x="290" y="290" width="7" height="18"/>
    <rect x="300" y="290" width="3" height="18"/><rect x="306" y="290" width="6" height="18"/>
    <rect x="315" y="290" width="8" height="18"/><rect x="326" y="290" width="4" height="18"/>
    <rect x="333" y="290" width="5" height="18"/><rect x="341" y="290" width="9" height="18"/>
    <rect x="353" y="290" width="3" height="18"/><rect x="359" y="290" width="7" height="18"/>
    <rect x="369" y="290" width="4" height="18"/><rect x="376" y="290" width="6" height="18"/>
    <rect x="385" y="290" width="8" height="18"/><rect x="396" y="290" width="3" height="18"/>
    <rect x="402" y="290" width="5" height="18"/><rect x="410" y="290" width="9" height="18"/>
    <rect x="422" y="290" width="4" height="18"/><rect x="429" y="290" width="7" height="18"/>
    <rect x="439" y="290" width="3" height="18"/><rect x="445" y="290" width="6" height="18"/>
    <rect x="454" y="290" width="8" height="18"/><rect x="465" y="290" width="4" height="18"/>
    <rect x="472" y="290" width="5" height="18"/><rect x="480" y="290" width="9" height="18"/>
    <rect x="492" y="290" width="3" height="18"/><rect x="498" y="290" width="7" height="18"/>
    <rect x="508" y="290" width="4" height="18"/><rect x="515" y="290" width="6" height="18"/>
    <rect x="524" y="290" width="8" height="18"/><rect x="535" y="290" width="3" height="18"/>
    <rect x="541" y="290" width="5" height="18"/><rect x="549" y="290" width="9" height="18"/>
    <rect x="561" y="290" width="4" height="18"/><rect x="568" y="290" width="7" height="18"/>
    <rect x="578" y="290" width="3" height="18"/><rect x="584" y="290" width="5" height="18"/>
    <rect x="590" y="290" width="9" height="18"/><rect x="602" y="290" width="3" height="18"/>
    <rect x="608" y="290" width="6" height="18"/>
  </g>

  <!-- Горизонтальная линия-граница штрих-кода -->
  <rect x="155" y="175" width="465" height="2" fill="#6366f1" opacity="0.5"/>
  <rect x="155" y="311" width="465" height="2" fill="#6366f1" opacity="0.5"/>

  <!-- Excel файл (вход) — иконка слева -->
  <rect x="60" y="238" width="70" height="80" rx="6" fill="#0f1f30" stroke="#6366f1" stroke-width="1" opacity="0.8"/>
  <rect x="60" y="238" width="70" height="24" rx="6" fill="#1e3a5f" opacity="0.8"/>
  <rect x="60" y="250" width="70" height="12" fill="#1e3a5f" opacity="0.8"/>
  <text x="95" y="255" font-family="monospace" font-size="9" fill="#6366f1" text-anchor="middle" opacity="0.9">.xlsx</text>
  <line x1="68" y1="278" x2="122" y2="278" stroke="#94a3b8" stroke-width="1" opacity="0.4"/>
  <line x1="68" y1="288" x2="114" y2="288" stroke="#94a3b8" stroke-width="1" opacity="0.4"/>
  <line x1="68" y1="298" x2="118" y2="298" stroke="#94a3b8" stroke-width="1" opacity="0.4"/>
  <line x1="68" y1="308" x2="110" y2="308" stroke="#94a3b8" stroke-width="1" opacity="0.4"/>

  <!-- Стрелка от Excel к штрих-коду -->
  <line x1="132" y1="278" x2="155" y2="244" stroke="#6366f1" stroke-width="1.5" opacity="0.5" marker-end="url(#arr)"/>

  <!-- PNG файл (выход) — иконка справа -->
  <rect x="665" y="238" width="70" height="80" rx="6" fill="#0f1f30" stroke="#818cf8" stroke-width="1" opacity="0.8"/>
  <rect x="665" y="238" width="70" height="24" rx="6" fill="#2d1b69" opacity="0.8"/>
  <rect x="665" y="250" width="70" height="12" fill="#2d1b69" opacity="0.8"/>
  <text x="700" y="255" font-family="monospace" font-size="9" fill="#818cf8" text-anchor="middle" opacity="0.9">.png</text>
  <!-- Имитация прозрачного фона (шахматка) -->
  <rect x="673" y="268" width="8" height="8" fill="#555" opacity="0.3"/>
  <rect x="681" y="268" width="8" height="8" fill="#888" opacity="0.3"/>
  <rect x="673" y="276" width="8" height="8" fill="#888" opacity="0.3"/>
  <rect x="681" y="276" width="8" height="8" fill="#555" opacity="0.3"/>
  <!-- Маленький штрих-код на PNG -->
  <rect x="693" y="268" width="2" height="40" fill="#818cf8" opacity="0.6"/>
  <rect x="697" y="268" width="4" height="40" fill="#818cf8" opacity="0.6"/>
  <rect x="703" y="268" width="2" height="40" fill="#818cf8" opacity="0.6"/>
  <rect x="707" y="268" width="5" height="40" fill="#818cf8" opacity="0.6"/>
  <rect x="714" y="268" width="2" height="40" fill="#818cf8" opacity="0.6"/>
  <rect x="718" y="268" width="3" height="40" fill="#818cf8" opacity="0.6"/>
  <rect x="723" y="268" width="4" height="40" fill="#818cf8" opacity="0.6"/>
  <rect x="729" y="268" width="2" height="40" fill="#818cf8" opacity="0.6"/>

  <!-- Стрелка от штрих-кода к PNG -->
  <line x1="620" y1="244" x2="663" y2="264" stroke="#818cf8" stroke-width="1.5" opacity="0.5" marker-end="url(#arr2)"/>

  <defs>
    <marker id="arr" markerWidth="8" markerHeight="6" refX="7" refY="3" orient="auto">
      <polygon points="0 0, 8 3, 0 6" fill="#6366f1" opacity="0.7"/>
    </marker>
    <marker id="arr2" markerWidth="8" markerHeight="6" refX="7" refY="3" orient="auto">
      <polygon points="0 0, 8 3, 0 6" fill="#818cf8" opacity="0.7"/>
    </marker>
  </defs>

  <!-- Заголовок -->
  <text x="400" y="120" font-family="'Inter', sans-serif" font-size="28" font-weight="700"
        fill="#e2e8f0" text-anchor="middle" opacity="0.95">PDF417 Barcode Generator</text>

  <!-- Подзаголовок -->
  <text x="400" y="150" font-family="'Inter', sans-serif" font-size="14"
        fill="#6366f1" text-anchor="middle" opacity="0.8">Excel → PNG · 12 columns · 5:1 ratio · Transparent</text>

  <!-- Лейблы -->
  <text x="95" y="336" font-family="'Inter', sans-serif" font-size="11" fill="#94a3b8" text-anchor="middle" opacity="0.7">input.xlsx</text>
  <text x="700" y="336" font-family="'Inter', sans-serif" font-size="11" fill="#94a3b8" text-anchor="middle" opacity="0.7">ru1.png, ru2.png…</text>
  <text x="400" y="348" font-family="'Inter', sans-serif" font-size="11" fill="#6366f1" text-anchor="middle" opacity="0.6">Python · PyInstaller EXE</text>

  <!-- Частицы -->
  <circle cx="120" cy="140" r="3" fill="#6366f1" opacity="0.3"/>
  <circle cx="680" cy="160" r="5" fill="#818cf8" opacity="0.2"/>
  <circle cx="400" cy="400" r="4" fill="#6366f1" opacity="0.15"/>
  <circle cx="200" cy="420" r="3" fill="#818cf8" opacity="0.25"/>
  <circle cx="600" cy="410" r="6" fill="#6366f1" opacity="0.15"/>
  <circle cx="730" cy="120" r="3" fill="#818cf8" opacity="0.3"/>
  <circle cx="80" cy="450" r="4" fill="#6366f1" opacity="0.2"/>

  <!-- Декоративный угловой элемент -->
  <line x1="30" y1="30" x2="80" y2="30" stroke="#6366f1" stroke-width="1.5" opacity="0.4"/>
  <line x1="30" y1="30" x2="30" y2="80" stroke="#6366f1" stroke-width="1.5" opacity="0.4"/>
  <line x1="770" y1="570" x2="720" y2="570" stroke="#6366f1" stroke-width="1.5" opacity="0.4"/>
  <line x1="770" y1="570" x2="770" y2="520" stroke="#6366f1" stroke-width="1.5" opacity="0.4"/>
</svg>
