<svg xmlns="http://www.w3.org/2000/svg" viewBox="0 0 800 600">
  <defs>
    <linearGradient id="bg" x1="0%" y1="0%" x2="100%" y2="100%">
      <stop offset="0%" stop-color="#0a0a20"/>
      <stop offset="100%" stop-color="#04040f"/>
    </linearGradient>
    <linearGradient id="termBg" x1="0%" y1="0%" x2="0%" y2="100%">
      <stop offset="0%" stop-color="#0f1022"/>
      <stop offset="100%" stop-color="#080812"/>
    </linearGradient>
    <linearGradient id="formBg" x1="0%" y1="0%" x2="0%" y2="100%">
      <stop offset="0%" stop-color="#111125"/>
      <stop offset="100%" stop-color="#0a0a18"/>
    </linearGradient>
  </defs>

  <!-- Background -->
  <rect width="800" height="600" fill="url(#bg)"/>

  <!-- Grid overlay -->
  <g stroke="#6366f1" stroke-width="0.5" opacity="0.05">
    <line x1="0" y1="60" x2="800" y2="60"/>
    <line x1="0" y1="120" x2="800" y2="120"/>
    <line x1="0" y1="180" x2="800" y2="180"/>
    <line x1="0" y1="240" x2="800" y2="240"/>
    <line x1="0" y1="300" x2="800" y2="300"/>
    <line x1="0" y1="360" x2="800" y2="360"/>
    <line x1="0" y1="420" x2="800" y2="420"/>
    <line x1="0" y1="480" x2="800" y2="480"/>
    <line x1="0" y1="540" x2="800" y2="540"/>
    <line x1="80" y1="0" x2="80" y2="600"/>
    <line x1="160" y1="0" x2="160" y2="600"/>
    <line x1="240" y1="0" x2="240" y2="600"/>
    <line x1="320" y1="0" x2="320" y2="600"/>
    <line x1="400" y1="0" x2="400" y2="600"/>
    <line x1="480" y1="0" x2="480" y2="600"/>
    <line x1="560" y1="0" x2="560" y2="600"/>
    <line x1="640" y1="0" x2="640" y2="600"/>
    <line x1="720" y1="0" x2="720" y2="600"/>
  </g>

  <!-- Terminal window (left side) -->
  <rect x="36" y="72" width="340" height="456" rx="8" fill="url(#termBg)" stroke="#6366f1" stroke-width="1.5" opacity="0.9"/>
  <!-- Terminal titlebar -->
  <rect x="36" y="72" width="340" height="30" rx="8" fill="#1a1a38"/>
  <rect x="36" y="88" width="340" height="14" fill="#1a1a38"/>
  <circle cx="58" cy="87" r="5.5" fill="#ef4444" opacity="0.8"/>
  <circle cx="76" cy="87" r="5.5" fill="#f59e0b" opacity="0.8"/>
  <circle cx="94" cy="87" r="5.5" fill="#10b981" opacity="0.8"/>
  <text x="206" y="91" fill="#94a3b8" font-size="10" text-anchor="middle" font-family="monospace">honeypot-logs — bash</text>

  <!-- Terminal prompt -->
  <text x="52" y="126" fill="#6366f1" font-size="9.5" font-family="monospace" opacity="0.8">$ tail -f creds/all_creds.log</text>

  <!-- Attack log entries -->
  <text x="52" y="150" fill="#64748b" font-size="9" font-family="monospace">2026-01-22 04:11:02</text>
  <text x="178" y="150" fill="#94a3b8" font-size="9" font-family="monospace">185.220.101.45</text>
  <text x="288" y="150" fill="#94a3b8" font-size="9" font-family="monospace">admin:admin123</text>

  <text x="52" y="166" fill="#64748b" font-size="9" font-family="monospace">2026-01-22 04:11:07</text>
  <text x="178" y="166" fill="#94a3b8" font-size="9" font-family="monospace">45.146.164.110</text>
  <text x="288" y="166" fill="#94a3b8" font-size="9" font-family="monospace">root:password</text>

  <text x="52" y="182" fill="#64748b" font-size="9" font-family="monospace">2026-01-22 04:11:09</text>
  <text x="178" y="182" fill="#ef4444" font-size="9" font-family="monospace" opacity="0.9">91.240.118.222</text>
  <text x="288" y="182" fill="#ef4444" font-size="9" font-family="monospace" opacity="0.9">cisco:cisco123</text>

  <text x="52" y="198" fill="#64748b" font-size="9" font-family="monospace">2026-01-22 04:11:14</text>
  <text x="178" y="198" fill="#94a3b8" font-size="9" font-family="monospace">194.165.16.11</text>
  <text x="288" y="198" fill="#94a3b8" font-size="9" font-family="monospace">admin:12345</text>

  <text x="52" y="214" fill="#64748b" font-size="9" font-family="monospace">2026-01-22 04:11:18</text>
  <text x="178" y="214" fill="#94a3b8" font-size="9" font-family="monospace">178.73.215.171</text>
  <text x="288" y="214" fill="#94a3b8" font-size="9" font-family="monospace">test:test1234</text>

  <text x="52" y="230" fill="#64748b" font-size="9" font-family="monospace">2026-01-22 04:11:21</text>
  <text x="178" y="230" fill="#ef4444" font-size="9" font-family="monospace" opacity="0.9">45.133.1.35</text>
  <text x="288" y="230" fill="#ef4444" font-size="9" font-family="monospace" opacity="0.9">vpnuser:cisco</text>

  <text x="52" y="246" fill="#64748b" font-size="9" font-family="monospace">2026-01-22 04:11:28</text>
  <text x="178" y="246" fill="#94a3b8" font-size="9" font-family="monospace">195.54.160.149</text>
  <text x="288" y="246" fill="#94a3b8" font-size="9" font-family="monospace">admin:fortigate</text>

  <text x="52" y="262" fill="#64748b" font-size="9" font-family="monospace">2026-01-22 04:11:33</text>
  <text x="178" y="262" fill="#94a3b8" font-size="9" font-family="monospace">91.121.56.159</text>
  <text x="288" y="262" fill="#94a3b8" font-size="9" font-family="monospace">guest:guest</text>

  <text x="52" y="278" fill="#64748b" font-size="9" font-family="monospace">2026-01-22 04:11:39</text>
  <text x="178" y="278" fill="#ef4444" font-size="9" font-family="monospace" opacity="0.9">79.124.62.100</text>
  <text x="288" y="278" fill="#ef4444" font-size="9" font-family="monospace" opacity="0.9">ssl:sslvpn123</text>

  <text x="52" y="294" fill="#64748b" font-size="9" font-family="monospace">2026-01-22 04:11:44</text>
  <text x="178" y="294" fill="#94a3b8" font-size="9" font-family="monospace">45.155.205.22</text>
  <text x="288" y="294" fill="#94a3b8" font-size="9" font-family="monospace">user:123456</text>

  <text x="52" y="310" fill="#64748b" font-size="9" font-family="monospace">2026-01-22 04:11:51</text>
  <text x="178" y="310" fill="#94a3b8" font-size="9" font-family="monospace">89.248.165.131</text>
  <text x="288" y="310" fill="#94a3b8" font-size="9" font-family="monospace">admin:cisco</text>

  <!-- Blinking cursor line -->
  <text x="52" y="330" fill="#6366f1" font-size="9" font-family="monospace" opacity="0.9">▊</text>

  <!-- Divider -->
  <line x1="52" y1="352" x2="356" y2="352" stroke="#6366f1" stroke-width="0.5" opacity="0.3"/>

  <!-- Stats -->
  <text x="52" y="372" fill="#6366f1" font-size="9.5" font-family="monospace">Logged:   1,247 attempts today</text>
  <text x="52" y="390" fill="#6366f1" font-size="9.5" font-family="monospace">Sources:  89 unique IPs</text>
  <text x="52" y="408" fill="#6366f1" font-size="9.5" font-family="monospace">Ports:    :443  :10443  :4443</text>
  <text x="52" y="430" fill="#10b981" font-size="9.5" font-family="monospace">Status:   CAPTURING ●</text>

  <!-- Separator between panels -->
  <line x1="390" y1="72" x2="390" y2="528" stroke="#6366f1" stroke-width="0.5" opacity="0.15" stroke-dasharray="6,4"/>

  <!-- Arrow connecting panels -->
  <line x1="376" y1="300" x2="414" y2="300" stroke="#6366f1" stroke-width="1.5" opacity="0.4" stroke-dasharray="4,3"/>
  <polygon points="411,295 421,300 411,305" fill="#6366f1" opacity="0.4"/>

  <!-- Login form mockup (right side) -->
  <rect x="424" y="108" width="308" height="400" rx="8" fill="url(#formBg)" stroke="#334155" stroke-width="1"/>

  <!-- Form browser bar -->
  <rect x="424" y="108" width="308" height="28" rx="8" fill="#13133a"/>
  <rect x="424" y="122" width="308" height="14" fill="#13133a"/>
  <rect x="436" y="116" width="240" height="14" rx="3" fill="#0a0a20" stroke="#334155" stroke-width="0.5"/>
  <text x="448" y="126.5" fill="#64748b" font-size="8.5" font-family="monospace">https://ip:10443/remote/login?lang=en</text>
  <circle cx="714" cy="123" r="5" fill="#1a1a35" stroke="#334155" stroke-width="0.5"/>
  <circle cx="728" cy="123" r="5" fill="#1a1a35" stroke="#334155" stroke-width="0.5"/>

  <!-- Form header area -->
  <rect x="424" y="136" width="308" height="52" fill="#0f1028"/>
  <!-- Cisco-style header -->
  <rect x="500" y="146" width="156" height="30" rx="4" fill="#6366f1" opacity="0.12"/>
  <text x="578" y="166" fill="#818cf8" font-size="13" text-anchor="middle" font-family="sans-serif" font-weight="bold">SSL VPN Service</text>

  <!-- Form body -->
  <text x="444" y="214" fill="#94a3b8" font-size="10" font-family="sans-serif">Username</text>
  <rect x="444" y="220" width="270" height="30" rx="4" fill="#1a1a2e" stroke="#2a2a4a" stroke-width="1"/>
  <text x="456" y="239" fill="#475569" font-size="9.5" font-family="monospace">admin</text>

  <text x="444" y="274" fill="#94a3b8" font-size="10" font-family="sans-serif">Password</text>
  <rect x="444" y="280" width="270" height="30" rx="4" fill="#1a1a2e" stroke="#2a2a4a" stroke-width="1"/>
  <circle cx="460" cy="295" r="3" fill="#94a3b8" opacity="0.5"/>
  <circle cx="473" cy="295" r="3" fill="#94a3b8" opacity="0.5"/>
  <circle cx="486" cy="295" r="3" fill="#94a3b8" opacity="0.5"/>
  <circle cx="499" cy="295" r="3" fill="#94a3b8" opacity="0.5"/>
  <circle cx="512" cy="295" r="3" fill="#94a3b8" opacity="0.5"/>
  <circle cx="525" cy="295" r="3" fill="#94a3b8" opacity="0.5"/>

  <!-- Login button -->
  <rect x="444" y="328" width="270" height="34" rx="4" fill="#6366f1" opacity="0.85"/>
  <text x="579" y="350" fill="white" font-size="13" text-anchor="middle" font-family="sans-serif">Login</text>

  <!-- Error banner -->
  <rect x="444" y="376" width="270" height="28" rx="4" fill="#ef4444" opacity="0.12" stroke="#ef4444" stroke-width="0.5" stroke-opacity="0.5"/>
  <text x="579" y="394" fill="#ef4444" font-size="9.5" text-anchor="middle" font-family="sans-serif">Authentication failed. Please try again.</text>

  <!-- Port indicators -->
  <rect x="444" y="420" width="82" height="22" rx="3" fill="#6366f1" opacity="0.15" stroke="#6366f1" stroke-width="0.5" stroke-opacity="0.4"/>
  <text x="485" y="435" fill="#818cf8" font-size="9" text-anchor="middle" font-family="monospace">:443</text>

  <rect x="536" y="420" width="82" height="22" rx="3" fill="#6366f1" opacity="0.15" stroke="#6366f1" stroke-width="0.5" stroke-opacity="0.4"/>
  <text x="577" y="435" fill="#818cf8" font-size="9" text-anchor="middle" font-family="monospace">:10443</text>

  <rect x="628" y="420" width="76" height="22" rx="3" fill="#6366f1" opacity="0.15" stroke="#6366f1" stroke-width="0.5" stroke-opacity="0.4"/>
  <text x="666" y="435" fill="#818cf8" font-size="9" text-anchor="middle" font-family="monospace">:4443</text>

  <!-- HONEYPOT label at bottom -->
  <line x1="424" y1="460" x2="732" y2="460" stroke="#6366f1" stroke-width="0.5" opacity="0.3"/>
  <text x="578" y="478" fill="#6366f1" font-size="9" text-anchor="middle" font-family="monospace" opacity="0.6">◆ HONEYPOT ACTIVE ◆</text>

  <!-- Particles -->
  <circle cx="404" cy="55" r="3" fill="#6366f1" opacity="0.3"/>
  <circle cx="760" cy="90" r="5" fill="#6366f1" opacity="0.15"/>
  <circle cx="770" cy="498" r="4" fill="#818cf8" opacity="0.2"/>
  <circle cx="28" cy="310" r="3" fill="#6366f1" opacity="0.2"/>
  <circle cx="402" cy="520" r="5" fill="#6366f1" opacity="0.12"/>
  <circle cx="750" cy="540" r="3" fill="#818cf8" opacity="0.18"/>

  <!-- Corner accent top-left -->
  <line x1="0" y1="0" x2="56" y2="0" stroke="#6366f1" stroke-width="2" opacity="0.6"/>
  <line x1="0" y1="0" x2="0" y2="56" stroke="#6366f1" stroke-width="2" opacity="0.6"/>
  <!-- Corner accent bottom-right -->
  <line x1="800" y1="600" x2="744" y2="600" stroke="#6366f1" stroke-width="2" opacity="0.6"/>
  <line x1="800" y1="600" x2="800" y2="544" stroke="#6366f1" stroke-width="2" opacity="0.6"/>
</svg>
