<svg xmlns="http://www.w3.org/2000/svg" viewBox="0 0 800 600">
  <defs>
    <linearGradient id="bg" x1="0%" y1="0%" x2="100%" y2="100%">
      <stop offset="0%" stop-color="#0a0a20"/>
      <stop offset="100%" stop-color="#04040f"/>
    </linearGradient>
  </defs>

  <!-- Background -->
  <rect width="800" height="600" fill="url(#bg)"/>

  <!-- Grid overlay -->
  <g stroke="#6366f1" stroke-width="0.5" opacity="0.05">
    <line x1="0" y1="60" x2="800" y2="60"/>
    <line x1="0" y1="120" x2="800" y2="120"/>
    <line x1="0" y1="180" x2="800" y2="180"/>
    <line x1="0" y1="240" x2="800" y2="240"/>
    <line x1="0" y1="300" x2="800" y2="300"/>
    <line x1="0" y1="360" x2="800" y2="360"/>
    <line x1="0" y1="420" x2="800" y2="420"/>
    <line x1="0" y1="480" x2="800" y2="480"/>
    <line x1="0" y1="540" x2="800" y2="540"/>
    <line x1="80" y1="0" x2="80" y2="600"/>
    <line x1="160" y1="0" x2="160" y2="600"/>
    <line x1="240" y1="0" x2="240" y2="600"/>
    <line x1="320" y1="0" x2="320" y2="600"/>
    <line x1="400" y1="0" x2="400" y2="600"/>
    <line x1="480" y1="0" x2="480" y2="600"/>
    <line x1="560" y1="0" x2="560" y2="600"/>
    <line x1="640" y1="0" x2="640" y2="600"/>
    <line x1="720" y1="0" x2="720" y2="600"/>
  </g>

  <!-- Code editor window -->
  <rect x="50" y="75" width="430" height="345" rx="10" fill="#0d0d20" stroke="#6366f1" stroke-width="1.5"/>
  <!-- Title bar -->
  <rect x="50" y="75" width="430" height="34" rx="10" fill="#16163a"/>
  <rect x="50" y="95" width="430" height="14" fill="#16163a"/>
  <!-- Traffic lights -->
  <circle cx="74" cy="92" r="5" fill="#ff5f57"/>
  <circle cx="92" cy="92" r="5" fill="#ffbd2e"/>
  <circle cx="110" cy="92" r="5" fill="#27c93f"/>
  <!-- File name -->
  <text x="265" y="97" fill="#6b7280" font-size="11" text-anchor="middle" font-family="monospace">twitter_for_ads.js</text>

  <!-- Script 1: Like -->
  <text x="74" y="130" fill="#6b7280" font-size="10" font-family="monospace">// 1. Like tweet (if not already liked)</text>
  <text x="74" y="148" fill="#818cf8" font-size="10.5" font-family="monospace">let </text>
  <text x="98" y="148" fill="#e2e8f0" font-size="10.5" font-family="monospace">like = document.querySelector(</text>
  <text x="74" y="163" fill="#86efac" font-size="10.5" font-family="monospace">  '[aria-label="Like"]'</text>
  <text x="74" y="178" fill="#e2e8f0" font-size="10.5" font-family="monospace">)</text>
  <text x="74" y="193" fill="#818cf8" font-size="10.5" font-family="monospace">if </text>
  <text x="93" y="193" fill="#e2e8f0" font-size="10.5" font-family="monospace">(like) { like.</text>
  <text x="181" y="193" fill="#67e8f9" font-size="10.5" font-family="monospace">click</text>
  <text x="213" y="193" fill="#e2e8f0" font-size="10.5" font-family="monospace">() }</text>

  <!-- Divider -->
  <line x1="74" y1="204" x2="460" y2="204" stroke="#6366f1" stroke-width="0.4" opacity="0.25"/>

  <!-- Script 2: Retweet -->
  <text x="74" y="220" fill="#6b7280" font-size="10" font-family="monospace">// 2. Retweet (if not retweeted)</text>
  <text x="74" y="237" fill="#818cf8" font-size="10.5" font-family="monospace">let </text>
  <text x="98" y="237" fill="#e2e8f0" font-size="10.5" font-family="monospace">retweet = document.querySelector(</text>
  <text x="74" y="252" fill="#86efac" font-size="10.5" font-family="monospace">  '[aria-label="Retweet"]'</text>
  <text x="74" y="267" fill="#e2e8f0" font-size="10.5" font-family="monospace">)</text>
  <text x="74" y="282" fill="#818cf8" font-size="10.5" font-family="monospace">if </text>
  <text x="93" y="282" fill="#e2e8f0" font-size="10.5" font-family="monospace">(retweet) { retweet.</text>
  <text x="229" y="282" fill="#67e8f9" font-size="10.5" font-family="monospace">click</text>
  <text x="261" y="282" fill="#e2e8f0" font-size="10.5" font-family="monospace">() }</text>

  <!-- Divider -->
  <line x1="74" y1="293" x2="460" y2="293" stroke="#6366f1" stroke-width="0.4" opacity="0.25"/>

  <!-- Script 3: Follow -->
  <text x="74" y="309" fill="#6b7280" font-size="10" font-family="monospace">// 3. Follow (if not following)</text>
  <text x="74" y="326" fill="#818cf8" font-size="10.5" font-family="monospace">let </text>
  <text x="98" y="326" fill="#e2e8f0" font-size="10.5" font-family="monospace">follow = headings.</text>
  <text x="215" y="326" fill="#67e8f9" font-size="10.5" font-family="monospace">iterateNext</text>
  <text x="293" y="326" fill="#e2e8f0" font-size="10.5" font-family="monospace">()</text>
  <text x="74" y="341" fill="#818cf8" font-size="10.5" font-family="monospace">if </text>
  <text x="93" y="341" fill="#e2e8f0" font-size="10.5" font-family="monospace">(follow) { follow.</text>
  <text x="222" y="341" fill="#67e8f9" font-size="10.5" font-family="monospace">click</text>
  <text x="254" y="341" fill="#e2e8f0" font-size="10.5" font-family="monospace">() }</text>

  <!-- Safe comment -->
  <text x="74" y="395" fill="#374151" font-size="10" font-family="monospace">// ✓ Idempotent: checks state before each action</text>

  <!-- Action cards (right side) -->
  <!-- Like card -->
  <rect x="516" y="90" width="224" height="76" rx="8" fill="#12112a" stroke="#6366f1" stroke-width="1.5"/>
  <rect x="516" y="90" width="4" height="76" rx="2" fill="#f472b6"/>
  <text x="545" y="120" fill="#f472b6" font-size="22" font-family="sans-serif">♥</text>
  <text x="576" y="118" fill="#e2e8f0" font-size="14" font-family="sans-serif" font-weight="600">Like</text>
  <text x="576" y="136" fill="#6b7280" font-size="10" font-family="sans-serif">if not already liked</text>
  <rect x="700" y="100" width="32" height="18" rx="4" fill="#052010" stroke="#27c93f" stroke-width="1"/>
  <text x="716" y="113" fill="#27c93f" font-size="9" font-family="sans-serif" text-anchor="middle">safe</text>

  <!-- Retweet card -->
  <rect x="516" y="184" width="224" height="76" rx="8" fill="#12112a" stroke="#6366f1" stroke-width="1.5"/>
  <rect x="516" y="184" width="4" height="76" rx="2" fill="#38bdf8"/>
  <text x="545" y="214" fill="#38bdf8" font-size="22" font-family="sans-serif">↺</text>
  <text x="576" y="212" fill="#e2e8f0" font-size="14" font-family="sans-serif" font-weight="600">Retweet</text>
  <text x="576" y="230" fill="#6b7280" font-size="10" font-family="sans-serif">if not retweeted</text>
  <rect x="700" y="194" width="32" height="18" rx="4" fill="#052010" stroke="#27c93f" stroke-width="1"/>
  <text x="716" y="207" fill="#27c93f" font-size="9" font-family="sans-serif" text-anchor="middle">safe</text>

  <!-- Follow card -->
  <rect x="516" y="278" width="224" height="76" rx="8" fill="#12112a" stroke="#6366f1" stroke-width="1.5"/>
  <rect x="516" y="278" width="4" height="76" rx="2" fill="#86efac"/>
  <text x="545" y="308" fill="#86efac" font-size="22" font-family="sans-serif">+✦</text>
  <text x="576" y="306" fill="#e2e8f0" font-size="14" font-family="sans-serif" font-weight="600">Follow</text>
  <text x="576" y="324" fill="#6b7280" font-size="10" font-family="sans-serif">if not following</text>
  <rect x="700" y="288" width="32" height="18" rx="4" fill="#052010" stroke="#27c93f" stroke-width="1"/>
  <text x="716" y="301" fill="#27c93f" font-size="9" font-family="sans-serif" text-anchor="middle">safe</text>

  <!-- AdsPower RPA badge -->
  <rect x="516" y="374" width="224" height="46" rx="8" fill="#1a1a3a" stroke="#6366f1" stroke-width="1"/>
  <text x="628" y="393" fill="#94a3b8" font-size="10" text-anchor="middle" font-family="sans-serif">RPA Engine</text>
  <text x="628" y="411" fill="#818cf8" font-size="12" text-anchor="middle" font-family="sans-serif" font-weight="700">AdsPower Browser</text>

  <!-- Connector dashes from editor to cards -->
  <line x1="480" y1="168" x2="514" y2="128" stroke="#6366f1" stroke-width="1" opacity="0.25" stroke-dasharray="4,3"/>
  <line x1="480" y1="260" x2="514" y2="222" stroke="#6366f1" stroke-width="1" opacity="0.25" stroke-dasharray="4,3"/>
  <line x1="480" y1="337" x2="514" y2="316" stroke="#6366f1" stroke-width="1" opacity="0.25" stroke-dasharray="4,3"/>

  <!-- Title section -->
  <line x1="50" y1="455" x2="750" y2="455" stroke="#6366f1" stroke-width="0.5" opacity="0.3"/>
  <text x="400" y="494" fill="#e2e8f0" font-size="24" text-anchor="middle" font-family="sans-serif" font-weight="700">Twitter RPA Automation</text>
  <text x="400" y="522" fill="#6366f1" font-size="13" text-anchor="middle" font-family="sans-serif">JavaScript · AdsPower Browser · DOM Scripting</text>

  <!-- Particles -->
  <circle cx="30" cy="180" r="3" fill="#6366f1" opacity="0.3"/>
  <circle cx="775" cy="100" r="5" fill="#6366f1" opacity="0.2"/>
  <circle cx="770" cy="490" r="4" fill="#818cf8" opacity="0.25"/>
  <circle cx="28" cy="530" r="6" fill="#6366f1" opacity="0.15"/>
  <circle cx="760" cy="370" r="3" fill="#a5b4fc" opacity="0.2"/>
  <circle cx="400" cy="45" r="4" fill="#6366f1" opacity="0.2"/>

  <!-- Corner accent -->
  <line x1="0" y1="0" x2="48" y2="0" stroke="#6366f1" stroke-width="3"/>
  <line x1="0" y1="0" x2="0" y2="48" stroke="#6366f1" stroke-width="3"/>
  <line x1="800" y1="600" x2="752" y2="600" stroke="#6366f1" stroke-width="3"/>
  <line x1="800" y1="600" x2="800" y2="552" stroke="#6366f1" stroke-width="3"/>
</svg>
